<svg xmlns="http://www.w3.org/2000/svg" enable-background="new 0 0 1364 960" viewBox="0 0 1364 960"><path fill="#87BDFF" d="M263.27,774.897h-3.749v-40.906c0-15.762,12.824-28.586,28.587-28.586H460.1
	c13.695,0,24.838-11.142,24.838-24.837v-61.659h3.749v61.659c0,15.763-12.824,28.587-28.587,28.587H288.108
	c-13.695,0-24.838,11.142-24.838,24.837V774.897z"/><rect width="3.749" height="129.272" x="684.412" y="626.011" fill="#87BDFF"/><path fill="#87BDFF" d="M1090.309,766.712h-3.749v-32.72c0-13.695-11.142-24.837-24.838-24.837h-154.25
	c-7.715,0-14.945-3.026-20.361-8.522c-5.416-5.495-8.335-12.77-8.223-20.484l0.846-57.716l3.749,0.055l-0.846,57.716
	c-0.099,6.703,2.438,13.023,7.144,17.798c4.705,4.774,10.987,7.404,17.69,7.404h154.25c15.763,0,28.587,12.824,28.587,28.586
	V766.712z"/><path fill="#C9DBFF" d="M221.022,538.293c-4.006,17.219,6.71,34.433,23.929,38.439c17.229,4.008,34.444-6.708,38.45-23.926
	c4.009-17.229-6.71-34.433-23.939-38.442C242.242,510.358,225.031,521.064,221.022,538.293z M244.142,543.672
	c1.035-4.45,5.489-7.223,9.939-6.188c4.461,1.038,7.223,5.489,6.188,9.94c-1.035,4.45-5.479,7.225-9.94,6.188
	C245.88,552.576,243.107,548.122,244.142,543.672z"/><path fill="#C9DBFF" d="M189.183,526.126l-2.062,8.865c-0.539,2.316,0.469,4.717,2.5,5.955l11.995,7.31
	c0.197,3.763,0.813,7.444,1.815,11.004l-9.042,10.642c-1.552,1.826-1.745,4.446-0.479,6.48l4.81,7.727
	c1.257,2.019,3.667,3.004,5.978,2.443l13.655-3.314c0.003,0.003,0.005,0.005,0.007,0.007c2.732,2.467,5.766,4.647,9.047,6.483
	c0.002,0.001,0.004,0.002,0.006,0.003l1.132,13.924c0.194,2.388,1.91,4.378,4.244,4.921l8.865,2.062
	c2.316,0.539,4.717-0.469,5.954-2.499l7.318-12.008l0.01,0.002c3.752-0.188,7.425-0.808,10.976-1.813l10.652,9.051
	c1.826,1.552,4.446,1.745,6.48,0.479l7.727-4.81c2.019-1.257,3.004-3.667,2.443-5.978l-3.312-13.65
	c2.469-2.742,4.661-5.782,6.496-9.062c0.001-0.001,0.001-0.002,0.002-0.003l13.918-1.132c2.388-0.194,4.378-1.91,4.921-4.244
	l2.063-8.865c0.539-2.316-0.469-4.717-2.499-5.954l-11.994-7.31c-0.197-3.763-0.813-7.445-1.816-11.005l9.041-10.641
	c1.551-1.826,1.745-4.446,0.479-6.48l-4.81-7.727c-1.257-2.019-3.667-3.004-5.978-2.443l-13.655,3.314
	c-0.002-0.002-0.004-0.004-0.006-0.006c-2.743-2.47-5.766-4.648-9.049-6.473c-0.001-0.001-0.003-0.001-0.004-0.002l-1.133-13.937
	c-0.194-2.388-1.91-4.378-4.244-4.921l-8.865-2.063c-2.316-0.539-4.717,0.469-5.954,2.5l-7.313,11.999c0,0,0,0,0,0
	c-3.755,0.199-7.428,0.819-10.98,1.824l-0.008-0.002l-10.655-9.053c-1.826-1.552-4.446-1.745-6.48-0.479l-7.727,4.81
	c-2.019,1.257-3.004,3.667-2.443,5.978l3.313,13.653c-2.468,2.742-4.66,5.781-6.495,9.061c0,0.001-0.001,0.001-0.001,0.002
	l-13.921,1.132C191.715,522.076,189.726,523.792,189.183,526.126z M216.932,537.341c4.533-19.486,23.997-31.612,43.483-27.078
	s31.609,24.008,27.075,43.494c-4.533,19.486-24.007,31.609-43.494,27.076C224.511,576.299,212.398,556.827,216.932,537.341z"/><path fill="#C9DBFF" d="M306.18,433.194c-5.841,8.98-3.296,21.001,5.684,26.843c8.985,5.845,21.007,3.3,26.848-5.68
	c5.845-8.985,3.296-21.001-5.689-26.846C324.043,421.669,312.025,424.209,306.18,433.194z M318.238,441.038
	c1.51-2.321,4.62-2.979,6.941-1.47c2.326,1.513,2.979,4.62,1.47,6.941c-1.51,2.321-4.615,2.983-6.941,1.47
	C317.386,446.47,316.728,443.359,318.238,441.038z"/><path fill="#C9DBFF" d="M290.559,419.682l-3.007,4.623c-0.786,1.208-0.708,2.784,0.193,3.909l5.322,6.644
	c-0.666,2.184-1.076,4.408-1.241,6.643l-7.351,4.193c-1.262,0.719-1.913,2.172-1.612,3.592l1.143,5.396
	c0.298,1.41,1.467,2.469,2.9,2.627l8.464,0.935c0.001,0.002,0.002,0.004,0.003,0.006c1.046,1.97,2.323,3.839,3.813,5.563
	c0.001,0.001,0.002,0.002,0.003,0.003l-2.234,8.165c-0.383,1.401,0.183,2.888,1.4,3.68l4.623,3.007
	c1.208,0.786,2.784,0.708,3.908-0.193l6.651-5.327l0.005,0.003c2.176,0.668,4.397,1.075,6.627,1.236l4.197,7.358
	c0.72,1.261,2.172,1.913,3.592,1.612l5.396-1.142c1.41-0.298,2.469-1.468,2.627-2.9l0.935-8.46c1.973-1.052,3.85-2.33,5.574-3.819
	c0.001-0.001,0.001-0.001,0.002-0.002l8.162,2.233c1.401,0.383,2.888-0.183,3.68-1.4l3.008-4.623
	c0.786-1.208,0.708-2.784-0.193-3.909l-5.321-6.643c0.666-2.184,1.076-4.409,1.241-6.644l7.35-4.192
	c1.261-0.72,1.913-2.172,1.612-3.592l-1.143-5.396c-0.298-1.41-1.468-2.469-2.9-2.627l-8.463-0.936
	c-0.001-0.001-0.001-0.003-0.002-0.004c-1.052-1.974-2.323-3.84-3.817-5.558c-0.001,0-0.001-0.001-0.002-0.002l2.236-8.173
	c0.383-1.401-0.183-2.888-1.4-3.68l-4.624-3.008c-1.208-0.786-2.784-0.708-3.908,0.193l-6.646,5.323c0,0,0,0,0,0
	c-2.18-0.663-4.401-1.069-6.631-1.231l-0.004-0.003l-4.198-7.359c-0.72-1.261-2.172-1.913-3.592-1.612l-5.396,1.143
	c-1.41,0.298-2.469,1.468-2.627,2.9l-0.935,8.462c-1.973,1.051-3.85,2.33-5.573,3.819c0,0-0.001,0.001-0.001,0.001l-8.164-2.233
	C292.838,417.898,291.35,418.464,290.559,419.682z M304.047,431.807c6.611-10.163,20.205-13.046,30.367-6.435
	c10.163,6.611,13.042,20.21,6.431,30.373c-6.611,10.163-20.21,13.042-30.373,6.431C300.31,455.565,297.436,441.969,304.047,431.807z
	"/><path fill="#C9DBFF" d="M965.597,199.089c-7.561,11.623-4.266,27.182,7.357,34.743c11.63,7.566,27.19,4.271,34.75-7.352
	c7.566-11.63,4.266-27.182-7.364-34.748C988.717,184.171,973.162,187.459,965.597,199.089z M981.203,209.242
	c1.954-3.004,5.98-3.857,8.984-1.902c3.011,1.959,3.856,5.98,1.902,8.984c-1.954,3.004-5.973,3.861-8.984,1.902
	C980.102,216.271,979.249,212.245,981.203,209.242z"/><path fill="#C9DBFF" d="M945.378,181.599l-3.893,5.984c-1.017,1.564-0.917,3.603,0.249,5.059l6.888,8.599
	c-0.862,2.827-1.393,5.706-1.606,8.598l-9.514,5.427c-1.633,0.931-2.476,2.811-2.087,4.65l1.479,6.984
	c0.386,1.824,1.9,3.196,3.754,3.4l10.954,1.211c0.001,0.003,0.002,0.005,0.003,0.007c1.354,2.55,3.007,4.969,4.935,7.201
	c0.001,0.001,0.002,0.003,0.003,0.004l-2.891,10.569c-0.496,1.813,0.237,3.739,1.812,4.763l5.984,3.893
	c1.563,1.017,3.603,0.917,5.059-0.249l8.609-6.895l0.006,0.004c2.817,0.865,5.69,1.391,8.578,1.6l5.432,9.523
	c0.931,1.633,2.811,2.477,4.65,2.087l6.984-1.479c1.825-0.387,3.196-1.9,3.401-3.754l1.21-10.95
	c2.554-1.361,4.983-3.016,7.214-4.943c0.001,0,0.002-0.001,0.002-0.002l10.565,2.89c1.813,0.496,3.739-0.237,4.763-1.812
	l3.893-5.984c1.017-1.563,0.916-3.603-0.25-5.059l-6.887-8.599c0.862-2.827,1.392-5.707,1.606-8.6l9.514-5.426
	c1.632-0.931,2.476-2.811,2.087-4.649l-1.479-6.984c-0.386-1.825-1.9-3.196-3.754-3.401l-10.954-1.211
	c-0.001-0.002-0.002-0.004-0.003-0.006c-1.361-2.555-3.007-4.969-4.94-7.194c-0.001-0.001-0.002-0.002-0.002-0.002l2.894-10.579
	c0.496-1.813-0.237-3.739-1.812-4.764l-5.984-3.893c-1.563-1.017-3.603-0.916-5.059,0.25l-8.602,6.89c0,0,0,0,0,0
	c-2.821-0.858-5.696-1.384-8.583-1.593l-0.006-0.004l-5.433-9.526c-0.931-1.633-2.811-2.476-4.65-2.087l-6.984,1.479
	c-1.825,0.386-3.196,1.9-3.401,3.754l-1.21,10.952c-2.553,1.361-4.983,3.016-7.213,4.942c-0.001,0.001-0.001,0.001-0.001,0.001
	l-10.566-2.891C948.328,179.291,946.403,180.024,945.378,181.599z M962.836,197.293c8.557-13.154,26.151-16.885,39.305-8.329
	c13.154,8.557,16.88,26.159,8.324,39.312c-8.556,13.153-26.158,16.881-39.312,8.324
	C957.999,228.044,954.279,210.446,962.836,197.293z"/><path fill="#C9DBFF" d="M470.551,98.881c-11.055,16.994-6.238,39.744,10.757,50.8c17.005,11.062,39.755,6.245,50.81-10.75
	c11.062-17.005,6.238-39.745-10.767-50.807C504.356,77.069,481.613,81.876,470.551,98.881z M493.37,113.725
	c2.857-4.392,8.743-5.639,13.136-2.781c4.403,2.864,5.639,8.743,2.781,13.136c-2.857,4.392-8.733,5.646-13.136,2.781
	C491.759,124.004,490.513,118.117,493.37,113.725z"/><path fill="#C9DBFF" d="M440.988,73.308l-5.692,8.75c-1.487,2.286-1.34,5.269,0.365,7.397l10.071,12.574
	c-1.26,4.133-2.036,8.343-2.349,12.572l-13.911,7.935c-2.388,1.361-3.621,4.11-3.052,6.799l2.162,10.212
	c0.565,2.668,2.777,4.673,5.488,4.972l16.017,1.77c0.002,0.004,0.003,0.007,0.005,0.011c1.98,3.729,4.397,7.266,7.216,10.529
	c0.001,0.002,0.003,0.004,0.005,0.005l-4.227,15.453c-0.725,2.651,0.346,5.466,2.65,6.965l8.749,5.692
	c2.286,1.487,5.268,1.34,7.397-0.365l12.587-10.082l0.009,0.006c4.118,1.265,8.32,2.034,12.542,2.34l7.942,13.925
	c1.362,2.387,4.11,3.621,6.799,3.051l10.212-2.162c2.668-0.565,4.673-2.778,4.972-5.489l1.77-16.01
	c3.734-1.99,7.286-4.41,10.548-7.228c0.001-0.001,0.002-0.002,0.003-0.003l15.447,4.226c2.651,0.725,5.466-0.346,6.965-2.65
	l5.692-8.75c1.487-2.286,1.34-5.268-0.365-7.397l-10.07-12.572c1.26-4.134,2.036-8.344,2.349-12.574l13.91-7.934
	c2.387-1.362,3.621-4.11,3.052-6.798l-2.162-10.212c-0.565-2.668-2.778-4.673-5.489-4.973l-16.017-1.77
	c-0.001-0.003-0.003-0.006-0.004-0.008c-1.99-3.736-4.397-7.266-7.223-10.518c-0.001-0.001-0.002-0.002-0.003-0.003l4.232-15.468
	c0.725-2.651-0.346-5.467-2.65-6.965l-8.75-5.692c-2.286-1.487-5.268-1.339-7.397,0.365l-12.578,10.074c0,0,0,0,0,0
	c-4.125-1.254-8.328-2.024-12.55-2.33l-0.008-0.005l-7.945-13.928c-1.362-2.387-4.11-3.62-6.799-3.051l-10.212,2.162
	c-2.668,0.565-4.673,2.778-4.972,5.488l-1.77,16.014c-3.733,1.99-7.285,4.409-10.546,7.227c-0.001,0.001-0.001,0.001-0.002,0.002
	l-15.449-4.226C445.302,69.933,442.486,71.004,440.988,73.308z M466.513,96.255c12.511-19.232,38.237-24.689,57.47-12.178
	c19.233,12.511,24.682,38.248,12.171,57.48c-12.511,19.232-38.247,24.682-57.48,12.171
	C459.442,141.217,454.003,115.487,466.513,96.255z"/><path fill="#C9DBFF" d="M1123.239,516.467c-17.229,4.008-27.948,21.212-23.939,38.442c4.006,17.219,21.221,27.935,38.45,23.926
	c17.219-4.006,27.935-21.221,23.929-38.439C1157.669,523.166,1140.458,512.461,1123.239,516.467z M1132.37,555.714
	c-4.461,1.038-8.904-1.737-9.94-6.187c-1.035-4.45,1.727-8.902,6.188-9.94c4.45-1.035,8.904,1.737,9.939,6.188
	C1139.593,550.225,1136.82,554.679,1132.37,555.714z"/><path fill="#C9DBFF" d="M1188.596,523.985l-13.921-1.132c0-0.001-0.001-0.001-0.001-0.002c-1.835-3.279-4.027-6.319-6.495-9.061
	l3.313-13.653c0.561-2.311-0.424-4.721-2.443-5.978l-7.727-4.81c-2.034-1.266-4.654-1.073-6.48,0.479l-10.655,9.053l-0.008,0.002
	c-3.551-1.005-7.225-1.625-10.98-1.824c0,0,0,0,0,0l-7.313-11.999c-1.238-2.03-3.638-3.038-5.954-2.5l-8.865,2.063
	c-2.334,0.543-4.049,2.532-4.244,4.921l-1.133,13.937c-0.001,0.001-0.002,0.001-0.004,0.002c-3.284,1.825-6.307,4.003-9.049,6.473
	c-0.002,0.002-0.004,0.004-0.006,0.005l-13.655-3.314c-2.311-0.561-4.721,0.424-5.978,2.443l-4.81,7.727
	c-1.266,2.034-1.073,4.654,0.479,6.48l9.041,10.641c-1.002,3.56-1.619,7.242-1.816,11.005l-11.994,7.31
	c-2.031,1.238-3.038,3.638-2.499,5.954l2.062,8.865c0.543,2.334,2.532,4.05,4.921,4.244l13.918,1.132
	c0.001,0.001,0.001,0.002,0.002,0.003c1.835,3.28,4.027,6.32,6.495,9.062l-3.312,13.65c-0.561,2.311,0.424,4.721,2.443,5.978
	l7.727,4.81c2.034,1.267,4.654,1.073,6.48-0.479l10.652-9.051c3.551,1.005,7.224,1.625,10.976,1.813l0.01-0.002l7.318,12.008
	c1.237,2.031,3.638,3.038,5.954,2.499l8.865-2.063c2.334-0.543,4.05-2.532,4.244-4.921l1.132-13.924
	c0.002-0.001,0.004-0.002,0.005-0.003c3.281-1.836,6.315-4.016,9.047-6.483c0.003-0.002,0.005-0.005,0.007-0.007l13.655,3.314
	c2.311,0.561,4.721-0.424,5.978-2.443l4.81-7.727c1.266-2.034,1.073-4.654-0.479-6.48l-9.042-10.642
	c1.002-3.56,1.618-7.241,1.815-11.004l11.995-7.31c2.031-1.237,3.039-3.638,2.5-5.955l-2.063-8.865
	C1192.974,525.895,1190.985,524.179,1188.596,523.985z M1138.703,582.936c-19.486,4.534-38.96-7.59-43.494-27.076
	c-4.533-19.486,7.589-38.96,27.075-43.494c19.486-4.533,38.95,7.592,43.483,27.078
	C1170.302,558.93,1158.189,578.402,1138.703,582.936z"/><path fill="#C9DBFF" d="M1049.677,429.613c-8.985,5.845-11.535,17.861-5.689,26.846c5.841,8.98,17.863,11.525,26.848,5.68
	c8.98-5.842,11.525-17.863,5.684-26.843C1070.675,426.312,1058.657,423.772,1049.677,429.613z M1062.992,450.082
	c-2.326,1.513-5.431,0.851-6.941-1.47c-1.51-2.321-0.857-5.428,1.47-6.941c2.321-1.51,5.431-0.851,6.941,1.47
	C1065.972,445.462,1065.313,448.572,1062.992,450.082z"/><path fill="#C9DBFF" d="M1088.461,420.384l-8.164,2.233c0,0,0,0-0.001-0.001c-1.723-1.488-3.6-2.767-5.573-3.818l-0.935-8.462
	c-0.158-1.432-1.218-2.601-2.627-2.9l-5.396-1.143c-1.421-0.301-2.873,0.351-3.593,1.612l-4.198,7.359l-0.004,0.003
	c-2.231,0.162-4.451,0.568-6.631,1.231c0,0,0,0,0,0l-6.646-5.323c-1.125-0.901-2.701-0.979-3.909-0.193l-4.623,3.008
	c-1.217,0.792-1.783,2.28-1.4,3.68l2.236,8.173c-0.001,0.001-0.001,0.001-0.002,0.002c-1.493,1.719-2.765,3.584-3.817,5.558
	c-0.001,0.001-0.001,0.003-0.002,0.004l-8.463,0.935c-1.432,0.158-2.602,1.218-2.9,2.628l-1.142,5.396
	c-0.301,1.42,0.351,2.873,1.612,3.592l7.35,4.192c0.165,2.235,0.575,4.46,1.241,6.644l-5.321,6.643
	c-0.901,1.125-0.979,2.701-0.193,3.909l3.008,4.623c0.792,1.217,2.28,1.783,3.68,1.4l8.162-2.233c0.001,0,0.001,0.001,0.002,0.001
	c1.723,1.489,3.6,2.768,5.573,3.819l0.935,8.46c0.158,1.432,1.218,2.602,2.627,2.9l5.396,1.142c1.42,0.301,2.873-0.351,3.592-1.612
	l4.197-7.358c2.231-0.161,4.451-0.568,6.627-1.236l0.005-0.003l6.651,5.327c1.125,0.901,2.7,0.978,3.908,0.193l4.623-3.008
	c1.217-0.792,1.783-2.28,1.4-3.68l-2.234-8.165c0.001-0.001,0.002-0.002,0.003-0.003c1.49-1.724,2.767-3.593,3.813-5.563
	c0.001-0.002,0.002-0.004,0.003-0.006l8.463-0.935c1.432-0.158,2.602-1.218,2.9-2.627l1.143-5.396
	c0.301-1.421-0.351-2.873-1.612-3.592l-7.351-4.193c-0.165-2.235-0.575-4.459-1.241-6.643l5.322-6.644
	c0.901-1.125,0.979-2.701,0.193-3.909l-3.008-4.623C1091.349,420.567,1089.862,420.001,1088.461,420.384z M1072.228,464.279
	c-10.163,6.611-23.762,3.731-30.373-6.431c-6.611-10.163-3.731-23.762,6.431-30.373c10.162-6.611,23.756-3.728,30.367,6.435
	C1085.264,444.072,1082.39,457.668,1072.228,464.279z"/><path fill="#87BDFF" d="M893.857,472.685h-6.119V439.52c0-7.858-6.393-14.25-14.25-14.25H698.751v45.319h-6.119v-51.438h180.856
	c11.231,0,20.369,9.137,20.369,20.369V472.685z"/><path fill="#87BDFF" d="M497.913,473.473h-6.119v-35.917c0-10.149,8.256-18.405,18.405-18.405h182.432V271.667h6.119V425.27H510.199
	c-6.775,0-12.286,5.512-12.286,12.286V473.473z"/><path fill="#4F9EFF" d="M1014.89,286.803c0,9.617-1.938,18.776-5.446,27.118c-0.572,1.387-1.194,2.743-1.866,4.079
	c-4.549,9.138-11.035,17.144-18.929,23.487c-1.816,1.448-3.702,2.815-5.65,4.079c-9.689,6.323-21.05,10.301-33.258,11.168
	l0.143,0.255H430.775l0.041-0.153c-26.18-1.275-48.219-18.347-56.704-41.896c-0.49-1.336-0.928-2.692-1.315-4.079
	c-1.581-5.538-2.428-11.392-2.428-17.439c0-6.741,1.051-13.228,2.998-19.316c0.439-1.377,0.928-2.743,1.458-4.079
	c6.752-16.991,20.632-30.372,37.949-36.48c2.019-0.714,4.079-1.326,6.18-1.836c-0.031-0.755-0.092-1.499-0.132-2.244
	c-0.051-0.704-0.092-1.418-0.092-2.142c0-10.943,1.764-21.478,5.048-31.33c0.439-1.377,0.928-2.733,1.448-4.079
	c3.019-7.955,7.037-15.41,11.902-22.233c0.979-1.387,1.999-2.754,3.06-4.08c18.225-23.008,46.404-37.765,78.03-37.765
	c4.732,0,9.352,0.438,13.911,1.081c11.382-23.508,35.399-39.754,63.272-39.754c7.139,0,14.023,1.081,20.52,3.06
	c3.906-9.617,9.291-18.48,15.869-26.302c1.173-1.387,2.376-2.754,3.631-4.079c17.888-19.031,43.283-30.922,71.472-30.922
	c41.518,0,76.959,25.792,91.308,62.222c0.53,1.346,1.03,2.703,1.499,4.079c1.591,4.64,2.855,9.444,3.743,14.37
	c8.434-3.58,17.715-5.568,27.455-5.568c27.363,0,51.065,15.635,62.691,38.449c0.673,1.336,1.315,2.703,1.907,4.079
	c0.714,1.652,1.367,3.345,1.948,5.059c0.5,1.448,0.949,2.927,1.356,4.416c0.959,3.559,1.642,7.231,2.03,10.984
	c1.448-0.133,2.906-0.224,4.395-0.224c26.415,0,47.832,21.417,47.832,47.842c0,0.173-0.021,0.357-0.021,0.53
	c16.287,1.928,30.872,9.424,41.784,20.54c1.285,1.316,2.519,2.672,3.702,4.079c7.537,8.985,12.861,19.887,15.145,31.861
	c0.245,1.346,0.459,2.713,0.632,4.079C1014.696,280.694,1014.89,283.723,1014.89,286.803z"/><path fill="#3F8CEB" d="M681.471,39.059c45.046,0,82.426,32.507,90.156,75.326c7.876-3.342,16.537-5.195,25.633-5.195
	c1.938,0,3.853,0.094,5.748,0.259c-9.123-44.79-48.63-78.528-96.115-78.528c-15.316,0-29.802,3.515-42.712,9.773
	C669.78,39.624,675.559,39.059,681.471,39.059z"/><path fill="#3F8CEB" d="M1014.895,286.805c0-35.94-27.03-65.524-61.861-69.646c0.002-0.181,0.027-0.356,0.027-0.537
	c0-26.421-21.418-47.839-47.838-47.839c-1.482,0-2.943,0.09-4.389,0.222c-3.675-35.385-33.581-62.978-69.939-62.978
	c-8.179,0-16.024,1.415-23.326,3.983c29.147,4.598,51.921,28.36,54.998,57.986c1.351-0.123,2.714-0.207,4.098-0.207
	c24.671,0,44.67,20,44.67,44.671c0,0.169-0.024,0.333-0.025,0.502c32.524,3.85,57.764,31.473,57.764,65.033
	c0,34.61-26.847,62.884-60.843,65.299l0.138,0.237H423.646l0.033-0.147c-23.348-1.137-43.155-15.727-51.794-36.195
	c6.079,27.479,29.956,48.233,58.929,49.644l-0.035,0.158h519.105l-0.147-0.254C986.143,354.15,1014.895,323.871,1014.895,286.805z"/><path fill="#91C2FF" d="M686.79,150.723h33.078c0.912,2.755,3.504,4.745,6.565,4.745c3.82,0,6.917-3.097,6.917-6.917
	c0-3.82-3.096-6.917-6.917-6.917c-3.159,0-5.816,2.119-6.645,5.01h-34.69l-45.262,45.272H425.227
	c-0.52,1.346-1.009,2.703-1.448,4.079h217.751L686.79,150.723z"/><path fill="#91C2FF" d="M702.637,187.418c-0.745-3.017-3.461-5.258-6.709-5.258c-3.82,0-6.917,3.097-6.917,6.917
	c0,3.82,3.097,6.917,6.917,6.917c2.968,0,5.492-1.872,6.474-4.498h162.925l33.471-33.472c-0.408-1.489-0.856-2.968-1.356-4.416
	l-33.809,33.808H702.637z"/><path fill="#91C2FF" d="M467.367,233.546l52.187,52.186h81.259c1.215,1.987,3.399,3.317,5.898,3.317c3.82,0,6.917-3.097,6.917-6.917
	c0-3.821-3.097-6.918-6.917-6.918c-3.659,0-6.646,2.842-6.893,6.438h-78.572l-52.186-52.186h-50.238
	c0.041,0.745,0.102,1.489,0.132,2.244c-2.101,0.51-4.161,1.122-6.18,1.836H467.367z"/><path fill="#91C2FF" d="M803.85,221.736H584.034c-0.424-3.414-3.33-6.058-6.858-6.058c-3.82,0-6.917,3.097-6.917,6.917
	c0,3.82,3.097,6.917,6.917,6.917c2.657,0,4.961-1.5,6.12-3.697h218.871l51.901,51.901h160.231c-0.173-1.367-0.387-2.733-0.633-4.079
	H855.76L803.85,221.736z"/><path fill="#91C2FF" d="M588.519,134.444c0.646,0.199,1.332,0.307,2.043,0.307c3.82,0,6.917-3.097,6.917-6.917
	c0-3.82-3.097-6.917-6.917-6.917c-3.82,0-6.917,3.097-6.917,6.917c0,1.603,0.55,3.075,1.466,4.248l-33.512,33.521h-111.41
	c-1.061,1.326-2.08,2.692-3.059,4.08H553.28L588.519,134.444z"/><path fill="#91C2FF" d="M780.444,313.921h-75.3c-0.871-2.825-3.5-4.878-6.611-4.878c-3.82,0-6.917,3.097-6.917,6.917
	c0,3.82,3.097,6.917,6.917,6.917c3.11,0,5.74-2.053,6.611-4.878h74.229l48.831,27.567h154.795c1.948-1.265,3.834-2.631,5.65-4.079
	H829.275L780.444,313.921z"/><path fill="#91C2FF" d="M446.287,279.647c3.82,0,6.917-3.097,6.917-6.917c0-3.82-3.097-6.917-6.917-6.917
	c-2.861,0-5.316,1.737-6.369,4.214h-65.093c-0.53,1.336-1.02,2.703-1.458,4.079h66.141
	C440.146,277.266,442.938,279.647,446.287,279.647z"/><path fill="#91C2FF" d="M497.325,209.031c-3.82,0-6.917,3.097-6.917,6.917s3.097,6.917,6.917,6.917c1.167,0,2.266-0.292,3.23-0.803
	l32.185,32.184h217.042c1.211,2.006,3.405,3.352,5.919,3.352c3.82,0,6.917-3.097,6.917-6.917s-3.096-6.917-6.917-6.917
	c-3.647,0-6.628,2.824-6.892,6.404h-214.38l-30.99-30.989c0.511-0.965,0.803-2.063,0.803-3.23
	C504.242,212.128,501.145,209.031,497.325,209.031z"/><path fill="#91C2FF" d="M707.144,70.799c3.82,0,6.917-3.097,6.917-6.917s-3.097-6.917-6.917-6.917c-3.111,0-5.74,2.053-6.611,4.878
	H635.42c-1.254,1.326-2.458,2.692-3.631,4.079h68.744C701.404,68.746,704.034,70.799,707.144,70.799z"/><path fill="#91C2FF" d="M610.586,167.444c3.821,0,6.918-3.097,6.918-6.917c0-0.615-0.089-1.208-0.239-1.776l61.53-61.53h120.905
	c-0.469-1.377-0.969-2.733-1.499-4.079H677.112l-62.089,62.08c-1.201-1.005-2.747-1.612-4.437-1.612
	c-3.82,0-6.917,3.097-6.917,6.917C603.669,164.347,606.766,167.444,610.586,167.444z"/><path fill="#91C2FF" d="M712.06,114.385c-3.82,0-6.917,3.097-6.917,6.917c0,3.82,3.097,6.917,6.917,6.917
	c2.685,0,5.008-1.533,6.154-3.769h114.865l24.099,24.099h38.316c-0.592-1.377-1.234-2.743-1.907-4.079h-34.726l-24.099-24.099
	H718.907C718.452,116.993,715.564,114.385,712.06,114.385z"/><path fill="#91C2FF" d="M762.311,167.539h68.389c0.871,2.824,3.5,4.877,6.611,4.877c3.82,0,6.917-3.097,6.917-6.917
	c0-3.82-3.097-6.917-6.917-6.917c-3.111,0-5.741,2.053-6.611,4.878h-68.389c-0.87-2.825-3.5-4.878-6.61-4.878
	c-3.82,0-6.918,3.097-6.918,6.917c0,3.82,3.098,6.917,6.918,6.917C758.811,172.416,761.441,170.363,762.311,167.539z"/><path fill="#91C2FF" d="M783.137,290.623c3.82,0,6.917-3.097,6.917-6.917c0-3.82-3.097-6.917-6.917-6.917
	c-3.278,0-6.017,2.283-6.731,5.344H672.38l-28.73,28.729H372.796c0.387,1.387,0.826,2.743,1.315,4.079h271.222l28.74-28.729h102.623
	C777.7,288.791,780.202,290.623,783.137,290.623z"/><path fill="#91C2FF" d="M842.288,308.023c-3.82,0-6.917,3.097-6.917,6.917c0,3.82,3.097,6.917,6.917,6.917
	c2.721,0,5.067-1.574,6.197-3.858h159.092c0.672-1.336,1.294-2.692,1.866-4.079H849.122
	C848.628,310.585,845.761,308.023,842.288,308.023z"/><path fill="#91C2FF" d="M873.604,232.819c-3.82,0-6.917,3.097-6.917,6.917c0,3.82,3.097,6.917,6.917,6.917
	c3.11,0,5.74-2.053,6.611-4.878h118.306c-1.183-1.407-2.417-2.764-3.702-4.079H880.215
	C879.344,234.872,876.714,232.819,873.604,232.819z"/><path fill="#91C2FF" d="M650.606,334.593c-3.253,0-5.973,2.248-6.712,5.273H538.849L498.83,356.99h10.362l30.494-13.044h104.452
	c0.986,2.617,3.506,4.482,6.467,4.482c3.82,0,6.917-3.097,6.917-6.917C657.523,337.69,654.426,334.593,650.606,334.593z"/><path fill="#3884E0" d="M540.322,642.397h-32.488c-4.277,0-7.743-3.467-7.743-7.743V468.737c0-4.276,3.467-7.743,7.743-7.743h32.488
	c4.277,0,7.743,3.467,7.743,7.743v165.916C548.065,638.93,544.599,642.397,540.322,642.397z"/><path fill="#4F9EFF" d="M528.681,642.397h-83.74c-4.082,0-7.39-3.309-7.39-7.39V468.384c0-4.081,3.309-7.39,7.39-7.39h83.74
	c4.081,0,7.39,3.309,7.39,7.39v166.623C536.071,639.088,532.763,642.397,528.681,642.397z"/><path fill="#FFF" d="M525.086,491.241h-76.55c-1.335,0-2.418-1.083-2.418-2.418v-13.527c0-1.336,1.083-2.418,2.418-2.418h76.55
	c1.335,0,2.418,1.083,2.418,2.418v13.527C527.505,490.159,526.422,491.241,525.086,491.241z"/><path fill="#8CC0FF" d="M448.583,479.408c0-1.045,0.847-1.892,1.892-1.892s1.892,0.847,1.892,1.892c0,1.045-0.847,1.892-1.892,1.892
	S448.583,480.453,448.583,479.408z"/><path fill="#FEC55E" d="M448.583,485.084c0-1.045,0.847-1.892,1.892-1.892s1.892,0.847,1.892,1.892c0,1.045-0.847,1.892-1.892,1.892
	S448.583,486.129,448.583,485.084z"/><path fill="#8CC0FF" d="M475.771,486.976h-18.917c-0.91,0-1.648-0.738-1.648-1.648v-6.166c0-0.91,0.738-1.648,1.648-1.648h18.917
	c0.91,0,1.648,0.738,1.648,1.648v6.166C477.419,486.239,476.681,486.976,475.771,486.976z"/><path fill="#8CC0FF" d="M485.632,486.976h-0.128c-0.651,0-1.179-0.528-1.179-1.179v-7.103c0-0.651,0.528-1.179,1.179-1.179h0.128
	c0.651,0,1.179,0.528,1.179,1.179v7.103C486.811,486.448,486.284,486.976,485.632,486.976z"/><path fill="#8CC0FF" d="M493.515,486.976h-0.128c-0.651,0-1.179-0.528-1.179-1.179v-7.102c0-0.651,0.528-1.179,1.179-1.179h0.128
	c0.651,0,1.179,0.528,1.179,1.179v7.102C494.694,486.448,494.166,486.976,493.515,486.976z"/><path fill="#8CC0FF" d="M501.398,486.976h-0.128c-0.651,0-1.179-0.528-1.179-1.179v-7.102c0-0.651,0.528-1.179,1.179-1.179h0.128
	c0.651,0,1.179,0.528,1.179,1.179v7.103C502.577,486.448,502.049,486.976,501.398,486.976z"/><path fill="#8CC0FF" d="M509.28,486.976h-0.128c-0.651,0-1.179-0.528-1.179-1.179v-7.103c0-0.651,0.528-1.179,1.179-1.179h0.128
	c0.651,0,1.179,0.528,1.179,1.179v7.102C510.459,486.448,509.931,486.976,509.28,486.976z"/><path fill="#8CC0FF" d="M517.162,486.976h-0.128c-0.651,0-1.179-0.528-1.179-1.179v-7.102c0-0.651,0.528-1.179,1.179-1.179h0.128
	c0.651,0,1.179,0.528,1.179,1.179v7.102C518.342,486.448,517.814,486.976,517.162,486.976z"/><path fill="#FFF" d="M525.086,519.284h-76.55c-1.335,0-2.418-1.083-2.418-2.418v-13.527c0-1.335,1.083-2.418,2.418-2.418h76.55
	c1.335,0,2.418,1.083,2.418,2.418v13.527C527.505,518.201,526.422,519.284,525.086,519.284z"/><path fill="#8CC0FF" d="M448.583,507.45c0-1.045,0.847-1.892,1.892-1.892s1.892,0.847,1.892,1.892c0,1.045-0.847,1.892-1.892,1.892
	S448.583,508.495,448.583,507.45z"/><path fill="#FEC55E" d="M448.583,513.127c0-1.045,0.847-1.892,1.892-1.892s1.892,0.847,1.892,1.892s-0.847,1.892-1.892,1.892
	S448.583,514.172,448.583,513.127z"/><path fill="#8CC0FF" d="M475.771,515.019h-18.917c-0.91,0-1.648-0.738-1.648-1.648v-6.165c0-0.91,0.738-1.648,1.648-1.648h18.917
	c0.91,0,1.648,0.738,1.648,1.648v6.165C477.419,514.281,476.681,515.019,475.771,515.019z"/><path fill="#8CC0FF" d="M485.632,515.019h-0.128c-0.651,0-1.179-0.528-1.179-1.179v-7.103c0-0.651,0.528-1.179,1.179-1.179h0.128
	c0.651,0,1.179,0.528,1.179,1.179v7.103C486.811,514.491,486.284,515.019,485.632,515.019z"/><path fill="#8CC0FF" d="M493.515,515.019h-0.128c-0.651,0-1.179-0.528-1.179-1.179v-7.102c0-0.651,0.528-1.179,1.179-1.179h0.128
	c0.651,0,1.179,0.528,1.179,1.179v7.102C494.694,514.491,494.166,515.019,493.515,515.019z"/><path fill="#8CC0FF" d="M501.398,515.019h-0.128c-0.651,0-1.179-0.528-1.179-1.179v-7.102c0-0.651,0.528-1.179,1.179-1.179h0.128
	c0.651,0,1.179,0.528,1.179,1.179v7.103C502.577,514.491,502.049,515.019,501.398,515.019z"/><path fill="#8CC0FF" d="M509.28,515.019h-0.128c-0.651,0-1.179-0.528-1.179-1.179v-7.103c0-0.651,0.528-1.179,1.179-1.179h0.128
	c0.651,0,1.179,0.528,1.179,1.179v7.103C510.459,514.491,509.931,515.019,509.28,515.019z"/><path fill="#8CC0FF" d="M517.163,515.019h-0.128c-0.651,0-1.179-0.528-1.179-1.179v-7.102c0-0.651,0.528-1.179,1.179-1.179h0.128
	c0.651,0,1.179,0.528,1.179,1.179v7.103C518.342,514.491,517.814,515.019,517.163,515.019z"/><path fill="#FFF" d="M525.086,547.327h-76.55c-1.335,0-2.418-1.083-2.418-2.418v-13.527c0-1.335,1.083-2.418,2.418-2.418h76.55
	c1.335,0,2.418,1.083,2.418,2.418v13.527C527.505,546.244,526.422,547.327,525.086,547.327z"/><path fill="#8CC0FF" d="M448.583,535.493c0-1.045,0.847-1.892,1.892-1.892s1.892,0.847,1.892,1.892c0,1.045-0.847,1.892-1.892,1.892
	S448.583,536.538,448.583,535.493z"/><path fill="#FEC55E" d="M448.583,541.17c0-1.045,0.847-1.892,1.892-1.892s1.892,0.847,1.892,1.892s-0.847,1.892-1.892,1.892
	S448.583,542.215,448.583,541.17z"/><path fill="#8CC0FF" d="M475.771,543.062h-18.917c-0.91,0-1.648-0.738-1.648-1.648v-6.165c0-0.91,0.738-1.648,1.648-1.648h18.917
	c0.91,0,1.648,0.738,1.648,1.648v6.165C477.419,542.324,476.681,543.062,475.771,543.062z"/><path fill="#8CC0FF" d="M485.632,543.062h-0.128c-0.651,0-1.179-0.528-1.179-1.179v-7.103c0-0.651,0.528-1.179,1.179-1.179h0.128
	c0.651,0,1.179,0.528,1.179,1.179v7.103C486.811,542.534,486.284,543.062,485.632,543.062z"/><path fill="#8CC0FF" d="M493.515,543.062h-0.128c-0.651,0-1.179-0.528-1.179-1.179v-7.102c0-0.651,0.528-1.179,1.179-1.179h0.128
	c0.651,0,1.179,0.528,1.179,1.179v7.102C494.694,542.534,494.166,543.062,493.515,543.062z"/><path fill="#8CC0FF" d="M501.398,543.062h-0.128c-0.651,0-1.179-0.528-1.179-1.179v-7.103c0-0.651,0.528-1.179,1.179-1.179h0.128
	c0.651,0,1.179,0.528,1.179,1.179v7.103C502.577,542.534,502.049,543.062,501.398,543.062z"/><path fill="#8CC0FF" d="M509.28,543.062h-0.128c-0.651,0-1.179-0.528-1.179-1.179v-7.103c0-0.651,0.528-1.179,1.179-1.179h0.128
	c0.651,0,1.179,0.528,1.179,1.179v7.103C510.459,542.534,509.931,543.062,509.28,543.062z"/><path fill="#8CC0FF" d="M517.163,543.062h-0.128c-0.651,0-1.179-0.528-1.179-1.179v-7.103c0-0.651,0.528-1.179,1.179-1.179h0.128
	c0.651,0,1.179,0.528,1.179,1.179v7.103C518.342,542.534,517.814,543.062,517.163,543.062z"/><path fill="#FFF" d="M525.086,575.37h-76.55c-1.335,0-2.418-1.083-2.418-2.418v-13.527c0-1.335,1.083-2.418,2.418-2.418h76.55
	c1.335,0,2.418,1.083,2.418,2.418v13.527C527.505,574.287,526.422,575.37,525.086,575.37z"/><circle cx="450.475" cy="563.536" r="1.892" fill="#8CC0FF"/><path fill="#FEC55E" d="M448.583,569.213c0-1.045,0.847-1.892,1.892-1.892s1.892,0.847,1.892,1.892c0,1.045-0.847,1.892-1.892,1.892
	S448.583,570.258,448.583,569.213z"/><path fill="#8CC0FF" d="M475.771,571.105h-18.917c-0.91,0-1.648-0.738-1.648-1.648v-6.165c0-0.91,0.738-1.648,1.648-1.648h18.917
	c0.91,0,1.648,0.738,1.648,1.648v6.165C477.419,570.367,476.681,571.105,475.771,571.105z"/><path fill="#8CC0FF" d="M485.632,571.105h-0.128c-0.651,0-1.179-0.528-1.179-1.179v-7.103c0-0.651,0.528-1.179,1.179-1.179h0.128
	c0.651,0,1.179,0.528,1.179,1.179v7.103C486.811,570.577,486.284,571.105,485.632,571.105z"/><path fill="#8CC0FF" d="M493.515,571.105h-0.128c-0.651,0-1.179-0.528-1.179-1.179v-7.103c0-0.651,0.528-1.179,1.179-1.179h0.128
	c0.651,0,1.179,0.528,1.179,1.179v7.103C494.694,570.577,494.166,571.105,493.515,571.105z"/><path fill="#8CC0FF" d="M501.398,571.105h-0.128c-0.651,0-1.179-0.528-1.179-1.179v-7.103c0-0.651,0.528-1.179,1.179-1.179h0.128
	c0.651,0,1.179,0.528,1.179,1.179v7.103C502.577,570.577,502.049,571.105,501.398,571.105z"/><path fill="#8CC0FF" d="M509.28,571.105h-0.128c-0.651,0-1.179-0.528-1.179-1.179v-7.103c0-0.651,0.528-1.179,1.179-1.179h0.128
	c0.651,0,1.179,0.528,1.179,1.179v7.103C510.459,570.577,509.931,571.105,509.28,571.105z"/><path fill="#8CC0FF" d="M517.162,571.105h-0.128c-0.651,0-1.179-0.528-1.179-1.179v-7.103c0-0.651,0.528-1.179,1.179-1.179h0.128
	c0.651,0,1.179,0.528,1.179,1.179v7.103C518.342,570.577,517.814,571.105,517.162,571.105z"/><path fill="#FFF" d="M525.086,603.412h-76.55c-1.335,0-2.418-1.083-2.418-2.418v-13.527c0-1.336,1.083-2.418,2.418-2.418h76.55
	c1.335,0,2.418,1.083,2.418,2.418v13.527C527.505,602.33,526.422,603.412,525.086,603.412z"/><path fill="#8CC0FF" d="M448.583,591.579c0-1.045,0.847-1.892,1.892-1.892s1.892,0.847,1.892,1.892c0,1.045-0.847,1.892-1.892,1.892
	S448.583,592.624,448.583,591.579z"/><path fill="#FEC55E" d="M448.583,597.255c0-1.045,0.847-1.892,1.892-1.892s1.892,0.847,1.892,1.892c0,1.045-0.847,1.892-1.892,1.892
	S448.583,598.3,448.583,597.255z"/><path fill="#8CC0FF" d="M475.771,599.148h-18.917c-0.91,0-1.648-0.738-1.648-1.648v-6.165c0-0.91,0.738-1.648,1.648-1.648h18.917
	c0.91,0,1.648,0.738,1.648,1.648v6.165C477.419,598.41,476.681,599.148,475.771,599.148z"/><path fill="#8CC0FF" d="M485.632,599.148h-0.128c-0.651,0-1.179-0.528-1.179-1.179v-7.103c0-0.651,0.528-1.179,1.179-1.179h0.128
	c0.651,0,1.179,0.528,1.179,1.179v7.103C486.811,598.62,486.284,599.148,485.632,599.148z"/><path fill="#8CC0FF" d="M493.515,599.148h-0.128c-0.651,0-1.179-0.528-1.179-1.179v-7.102c0-0.651,0.528-1.179,1.179-1.179h0.128
	c0.651,0,1.179,0.528,1.179,1.179v7.102C494.694,598.62,494.166,599.148,493.515,599.148z"/><path fill="#8CC0FF" d="M501.398,599.148h-0.128c-0.651,0-1.179-0.528-1.179-1.179v-7.103c0-0.651,0.528-1.179,1.179-1.179h0.128
	c0.651,0,1.179,0.528,1.179,1.179v7.103C502.577,598.62,502.049,599.148,501.398,599.148z"/><path fill="#8CC0FF" d="M509.28,599.148h-0.128c-0.651,0-1.179-0.528-1.179-1.179v-7.103c0-0.651,0.528-1.179,1.179-1.179h0.128
	c0.651,0,1.179,0.528,1.179,1.179v7.103C510.459,598.62,509.931,599.148,509.28,599.148z"/><path fill="#8CC0FF" d="M517.163,599.148h-0.128c-0.651,0-1.179-0.528-1.179-1.179v-7.103c0-0.651,0.528-1.179,1.179-1.179h0.128
	c0.651,0,1.179,0.528,1.179,1.179v7.103C518.342,598.62,517.814,599.148,517.163,599.148z"/><path fill="#FFF" d="M525.086,631.455h-76.55c-1.335,0-2.418-1.083-2.418-2.418V615.51c0-1.335,1.083-2.418,2.418-2.418h76.55
	c1.335,0,2.418,1.083,2.418,2.418v13.527C527.505,630.373,526.422,631.455,525.086,631.455z"/><path fill="#8CC0FF" d="M448.583,619.622c0-1.045,0.847-1.892,1.892-1.892s1.892,0.847,1.892,1.892c0,1.045-0.847,1.892-1.892,1.892
	S448.583,620.667,448.583,619.622z"/><path fill="#FEC55E" d="M448.583,625.298c0-1.045,0.847-1.892,1.892-1.892s1.892,0.847,1.892,1.892c0,1.045-0.847,1.892-1.892,1.892
	S448.583,626.343,448.583,625.298z"/><path fill="#8CC0FF" d="M475.771,627.19h-18.917c-0.91,0-1.648-0.738-1.648-1.648v-6.165c0-0.91,0.738-1.648,1.648-1.648h18.917
	c0.91,0,1.648,0.738,1.648,1.648v6.165C477.419,626.453,476.681,627.19,475.771,627.19z"/><path fill="#8CC0FF" d="M485.632,627.19h-0.128c-0.651,0-1.179-0.528-1.179-1.179v-7.103c0-0.651,0.528-1.179,1.179-1.179h0.128
	c0.651,0,1.179,0.528,1.179,1.179v7.103C486.811,626.662,486.284,627.19,485.632,627.19z"/><path fill="#8CC0FF" d="M493.515,627.19h-0.128c-0.651,0-1.179-0.528-1.179-1.179v-7.103c0-0.651,0.528-1.179,1.179-1.179h0.128
	c0.651,0,1.179,0.528,1.179,1.179v7.103C494.694,626.662,494.166,627.19,493.515,627.19z"/><path fill="#8CC0FF" d="M501.398,627.19h-0.128c-0.651,0-1.179-0.528-1.179-1.179v-7.103c0-0.651,0.528-1.179,1.179-1.179h0.128
	c0.651,0,1.179,0.528,1.179,1.179v7.103C502.577,626.663,502.049,627.19,501.398,627.19z"/><path fill="#8CC0FF" d="M509.28,627.19h-0.128c-0.651,0-1.179-0.528-1.179-1.179v-7.103c0-0.651,0.528-1.179,1.179-1.179h0.128
	c0.651,0,1.179,0.528,1.179,1.179v7.103C510.459,626.662,509.931,627.19,509.28,627.19z"/><path fill="#8CC0FF" d="M517.162,627.19h-0.128c-0.651,0-1.179-0.528-1.179-1.179v-7.103c0-0.651,0.528-1.179,1.179-1.179h0.128
	c0.651,0,1.179,0.528,1.179,1.179v7.103C518.342,626.662,517.814,627.19,517.162,627.19z"/><path fill="#3884E0" d="M734.401,642.397h-32.488c-4.277,0-7.744-3.467-7.744-7.743V468.737c0-4.276,3.467-7.743,7.743-7.743h32.488
	c4.277,0,7.744,3.467,7.744,7.743v165.916C742.144,638.93,738.677,642.397,734.401,642.397z"/><path fill="#4F9EFF" d="M722.76,642.397h-83.74c-4.081,0-7.39-3.309-7.39-7.39V468.384c0-4.081,3.309-7.39,7.39-7.39h83.74
	c4.081,0,7.39,3.309,7.39,7.39v166.623C730.151,639.088,726.842,642.397,722.76,642.397z"/><path fill="#FFF" d="M719.165,491.241h-76.55c-1.336,0-2.418-1.083-2.418-2.418v-13.527c0-1.336,1.083-2.418,2.418-2.418h76.55
	c1.336,0,2.418,1.083,2.418,2.418v13.527C721.583,490.159,720.501,491.241,719.165,491.241z"/><path fill="#8CC0FF" d="M642.662,479.408c0-1.045,0.847-1.892,1.892-1.892c1.045,0,1.892,0.847,1.892,1.892
	c0,1.045-0.847,1.892-1.892,1.892C643.509,481.3,642.662,480.453,642.662,479.408z"/><path fill="#FEC55E" d="M642.662,485.084c0-1.045,0.847-1.892,1.892-1.892c1.045,0,1.892,0.847,1.892,1.892
	c0,1.045-0.847,1.892-1.892,1.892C643.509,486.976,642.662,486.129,642.662,485.084z"/><path fill="#8CC0FF" d="M669.85,486.976h-18.917c-0.91,0-1.648-0.738-1.648-1.648v-6.166c0-0.91,0.738-1.648,1.648-1.648h18.917
	c0.91,0,1.648,0.738,1.648,1.648v6.166C671.498,486.239,670.76,486.976,669.85,486.976z"/><path fill="#8CC0FF" d="M679.711,486.976h-0.128c-0.651,0-1.179-0.528-1.179-1.179v-7.103c0-0.651,0.528-1.179,1.179-1.179h0.128
	c0.651,0,1.179,0.528,1.179,1.179v7.102C680.891,486.448,680.362,486.976,679.711,486.976z"/><path fill="#8CC0FF" d="M687.594,486.976h-0.128c-0.651,0-1.179-0.528-1.179-1.179v-7.102c0-0.651,0.528-1.179,1.179-1.179h0.128
	c0.651,0,1.179,0.528,1.179,1.179v7.102C688.773,486.448,688.245,486.976,687.594,486.976z"/><path fill="#8CC0FF" d="M695.476,486.976h-0.128c-0.651,0-1.179-0.528-1.179-1.179v-7.102c0-0.651,0.528-1.179,1.179-1.179h0.128
	c0.651,0,1.179,0.528,1.179,1.179v7.103C696.656,486.448,696.128,486.976,695.476,486.976z"/><path fill="#8CC0FF" d="M703.359,486.976h-0.128c-0.651,0-1.179-0.528-1.179-1.179v-7.103c0-0.651,0.528-1.179,1.179-1.179h0.128
	c0.651,0,1.179,0.528,1.179,1.179v7.103C704.538,486.448,704.01,486.976,703.359,486.976z"/><path fill="#8CC0FF" d="M711.241,486.976h-0.128c-0.651,0-1.179-0.528-1.179-1.179v-7.102c0-0.651,0.528-1.179,1.179-1.179h0.128
	c0.651,0,1.179,0.528,1.179,1.179v7.102C712.421,486.448,711.893,486.976,711.241,486.976z"/><path fill="#FFF" d="M719.165,519.284h-76.55c-1.336,0-2.418-1.083-2.418-2.418v-13.527c0-1.335,1.083-2.418,2.418-2.418h76.55
	c1.336,0,2.418,1.083,2.418,2.418v13.527C721.583,518.201,720.501,519.284,719.165,519.284z"/><path fill="#8CC0FF" d="M642.662,507.45c0-1.045,0.847-1.892,1.892-1.892c1.045,0,1.892,0.847,1.892,1.892
	c0,1.045-0.847,1.892-1.892,1.892C643.509,509.342,642.662,508.495,642.662,507.45z"/><path fill="#FEC55E" d="M642.662,513.127c0-1.045,0.847-1.892,1.892-1.892c1.045,0,1.892,0.847,1.892,1.892
	s-0.847,1.892-1.892,1.892C643.509,515.019,642.662,514.172,642.662,513.127z"/><path fill="#8CC0FF" d="M669.85,515.019h-18.917c-0.91,0-1.648-0.738-1.648-1.648v-6.165c0-0.91,0.738-1.648,1.648-1.648h18.917
	c0.91,0,1.648,0.738,1.648,1.648v6.165C671.498,514.281,670.76,515.019,669.85,515.019z"/><path fill="#8CC0FF" d="M679.711,515.019h-0.128c-0.651,0-1.179-0.528-1.179-1.179v-7.103c0-0.651,0.528-1.179,1.179-1.179h0.128
	c0.651,0,1.179,0.528,1.179,1.179v7.103C680.891,514.491,680.363,515.019,679.711,515.019z"/><path fill="#8CC0FF" d="M687.594,515.019h-0.128c-0.651,0-1.179-0.528-1.179-1.179v-7.102c0-0.651,0.528-1.179,1.179-1.179h0.128
	c0.651,0,1.179,0.528,1.179,1.179v7.103C688.773,514.491,688.245,515.019,687.594,515.019z"/><path fill="#8CC0FF" d="M695.476,515.019h-0.128c-0.651,0-1.179-0.528-1.179-1.179v-7.103c0-0.651,0.528-1.179,1.179-1.179h0.128
	c0.651,0,1.179,0.528,1.179,1.179v7.103C696.656,514.491,696.128,515.019,695.476,515.019z"/><path fill="#8CC0FF" d="M703.359,515.019h-0.128c-0.651,0-1.179-0.528-1.179-1.179v-7.103c0-0.651,0.528-1.179,1.179-1.179h0.128
	c0.651,0,1.179,0.528,1.179,1.179v7.103C704.538,514.491,704.01,515.019,703.359,515.019z"/><path fill="#8CC0FF" d="M711.241,515.019h-0.128c-0.651,0-1.179-0.528-1.179-1.179v-7.102c0-0.651,0.528-1.179,1.179-1.179h0.128
	c0.651,0,1.179,0.528,1.179,1.179v7.102C712.421,514.491,711.893,515.019,711.241,515.019z"/><path fill="#FFF" d="M719.165,547.327h-76.55c-1.336,0-2.418-1.083-2.418-2.418v-13.527c0-1.335,1.083-2.418,2.418-2.418h76.55
	c1.336,0,2.418,1.083,2.418,2.418v13.527C721.583,546.244,720.501,547.327,719.165,547.327z"/><path fill="#8CC0FF" d="M642.662,535.493c0-1.045,0.847-1.892,1.892-1.892c1.045,0,1.892,0.847,1.892,1.892
	c0,1.045-0.847,1.892-1.892,1.892C643.509,537.385,642.662,536.538,642.662,535.493z"/><path fill="#FEC55E" d="M642.662,541.17c0-1.045,0.847-1.892,1.892-1.892c1.045,0,1.892,0.847,1.892,1.892s-0.847,1.892-1.892,1.892
	C643.509,543.062,642.662,542.215,642.662,541.17z"/><path fill="#8CC0FF" d="M669.85,543.062h-18.917c-0.91,0-1.648-0.738-1.648-1.648v-6.165c0-0.91,0.738-1.648,1.648-1.648h18.917
	c0.91,0,1.648,0.738,1.648,1.648v6.165C671.498,542.324,670.76,543.062,669.85,543.062z"/><path fill="#8CC0FF" d="M679.711,543.062h-0.128c-0.651,0-1.179-0.528-1.179-1.179v-7.103c0-0.651,0.528-1.179,1.179-1.179h0.128
	c0.651,0,1.179,0.528,1.179,1.179v7.103C680.891,542.534,680.363,543.062,679.711,543.062z"/><path fill="#8CC0FF" d="M687.594,543.062h-0.128c-0.651,0-1.179-0.528-1.179-1.179v-7.103c0-0.651,0.528-1.179,1.179-1.179h0.128
	c0.651,0,1.179,0.528,1.179,1.179v7.103C688.773,542.534,688.245,543.062,687.594,543.062z"/><path fill="#8CC0FF" d="M695.476,543.062h-0.128c-0.651,0-1.179-0.528-1.179-1.179v-7.103c0-0.651,0.528-1.179,1.179-1.179h0.128
	c0.651,0,1.179,0.528,1.179,1.179v7.103C696.656,542.534,696.128,543.062,695.476,543.062z"/><path fill="#8CC0FF" d="M703.359,543.062h-0.128c-0.651,0-1.179-0.528-1.179-1.179v-7.103c0-0.651,0.528-1.179,1.179-1.179h0.128
	c0.651,0,1.179,0.528,1.179,1.179v7.103C704.538,542.534,704.01,543.062,703.359,543.062z"/><path fill="#8CC0FF" d="M711.241,543.062h-0.128c-0.651,0-1.179-0.528-1.179-1.179v-7.102c0-0.651,0.528-1.179,1.179-1.179h0.128
	c0.651,0,1.179,0.528,1.179,1.179v7.102C712.421,542.534,711.893,543.062,711.241,543.062z"/><path fill="#FFF" d="M719.165,575.37h-76.55c-1.336,0-2.418-1.083-2.418-2.418v-13.527c0-1.335,1.083-2.418,2.418-2.418h76.55
	c1.336,0,2.418,1.083,2.418,2.418v13.527C721.583,574.287,720.501,575.37,719.165,575.37z"/><path fill="#8CC0FF" d="M642.662,563.536c0-1.045,0.847-1.892,1.892-1.892c1.045,0,1.892,0.847,1.892,1.892
	s-0.847,1.892-1.892,1.892C643.509,565.428,642.662,564.581,642.662,563.536z"/><path fill="#FEC55E" d="M642.662,569.213c0-1.045,0.847-1.892,1.892-1.892c1.045,0,1.892,0.847,1.892,1.892
	c0,1.045-0.847,1.892-1.892,1.892C643.509,571.105,642.662,570.258,642.662,569.213z"/><path fill="#8CC0FF" d="M669.85,571.105h-18.917c-0.91,0-1.648-0.738-1.648-1.648v-6.165c0-0.91,0.738-1.648,1.648-1.648h18.917
	c0.91,0,1.648,0.738,1.648,1.648v6.165C671.498,570.367,670.76,571.105,669.85,571.105z"/><path fill="#8CC0FF" d="M679.711,571.105h-0.128c-0.651,0-1.179-0.528-1.179-1.179v-7.103c0-0.651,0.528-1.179,1.179-1.179h0.128
	c0.651,0,1.179,0.528,1.179,1.179v7.103C680.891,570.577,680.362,571.105,679.711,571.105z"/><path fill="#8CC0FF" d="M687.594,571.105h-0.128c-0.651,0-1.179-0.528-1.179-1.179v-7.103c0-0.651,0.528-1.179,1.179-1.179h0.128
	c0.651,0,1.179,0.528,1.179,1.179v7.103C688.773,570.577,688.245,571.105,687.594,571.105z"/><path fill="#8CC0FF" d="M695.476,571.105h-0.128c-0.651,0-1.179-0.528-1.179-1.179v-7.103c0-0.651,0.528-1.179,1.179-1.179h0.128
	c0.651,0,1.179,0.528,1.179,1.179v7.103C696.656,570.577,696.128,571.105,695.476,571.105z"/><path fill="#8CC0FF" d="M703.359,571.105h-0.128c-0.651,0-1.179-0.528-1.179-1.179v-7.103c0-0.651,0.528-1.179,1.179-1.179h0.128
	c0.651,0,1.179,0.528,1.179,1.179v7.103C704.538,570.577,704.01,571.105,703.359,571.105z"/><path fill="#8CC0FF" d="M711.241,571.105h-0.128c-0.651,0-1.179-0.528-1.179-1.179v-7.103c0-0.651,0.528-1.179,1.179-1.179h0.128
	c0.651,0,1.179,0.528,1.179,1.179v7.103C712.421,570.577,711.893,571.105,711.241,571.105z"/><path fill="#FFF" d="M719.165,603.412h-76.55c-1.336,0-2.418-1.083-2.418-2.418v-13.527c0-1.336,1.083-2.418,2.418-2.418h76.55
	c1.336,0,2.418,1.083,2.418,2.418v13.527C721.583,602.33,720.501,603.412,719.165,603.412z"/><path fill="#8CC0FF" d="M642.662,591.579c0-1.045,0.847-1.892,1.892-1.892c1.045,0,1.892,0.847,1.892,1.892
	c0,1.045-0.847,1.892-1.892,1.892C643.509,593.471,642.662,592.624,642.662,591.579z"/><path fill="#FEC55E" d="M642.662,597.255c0-1.045,0.847-1.892,1.892-1.892c1.045,0,1.892,0.847,1.892,1.892
	c0,1.045-0.847,1.892-1.892,1.892C643.509,599.148,642.662,598.3,642.662,597.255z"/><path fill="#8CC0FF" d="M669.85,599.148h-18.917c-0.91,0-1.648-0.738-1.648-1.648v-6.165c0-0.91,0.738-1.648,1.648-1.648h18.917
	c0.91,0,1.648,0.738,1.648,1.648v6.165C671.498,598.41,670.76,599.148,669.85,599.148z"/><path fill="#8CC0FF" d="M679.711,599.148h-0.128c-0.651,0-1.179-0.528-1.179-1.179v-7.103c0-0.651,0.528-1.179,1.179-1.179h0.128
	c0.651,0,1.179,0.528,1.179,1.179v7.103C680.891,598.62,680.363,599.148,679.711,599.148z"/><path fill="#8CC0FF" d="M687.594,599.148h-0.128c-0.651,0-1.179-0.528-1.179-1.179v-7.103c0-0.651,0.528-1.179,1.179-1.179h0.128
	c0.651,0,1.179,0.528,1.179,1.179v7.103C688.773,598.62,688.245,599.148,687.594,599.148z"/><path fill="#8CC0FF" d="M695.476,599.148h-0.128c-0.651,0-1.179-0.528-1.179-1.179v-7.103c0-0.651,0.528-1.179,1.179-1.179h0.128
	c0.651,0,1.179,0.528,1.179,1.179v7.103C696.656,598.62,696.128,599.148,695.476,599.148z"/><path fill="#8CC0FF" d="M703.359,599.148h-0.128c-0.651,0-1.179-0.528-1.179-1.179v-7.103c0-0.651,0.528-1.179,1.179-1.179h0.128
	c0.651,0,1.179,0.528,1.179,1.179v7.103C704.538,598.62,704.01,599.148,703.359,599.148z"/><path fill="#8CC0FF" d="M711.241,599.148h-0.128c-0.651,0-1.179-0.528-1.179-1.179v-7.102c0-0.651,0.528-1.179,1.179-1.179h0.128
	c0.651,0,1.179,0.528,1.179,1.179v7.102C712.421,598.62,711.893,599.148,711.241,599.148z"/><path fill="#FFF" d="M719.165,631.455h-76.55c-1.336,0-2.418-1.083-2.418-2.418V615.51c0-1.335,1.083-2.418,2.418-2.418h76.55
	c1.336,0,2.418,1.083,2.418,2.418v13.527C721.583,630.373,720.501,631.455,719.165,631.455z"/><path fill="#8CC0FF" d="M642.662,619.622c0-1.045,0.847-1.892,1.892-1.892c1.045,0,1.892,0.847,1.892,1.892
	c0,1.045-0.847,1.892-1.892,1.892C643.509,621.514,642.662,620.667,642.662,619.622z"/><path fill="#FEC55E" d="M642.662,625.298c0-1.045,0.847-1.892,1.892-1.892c1.045,0,1.892,0.847,1.892,1.892
	c0,1.045-0.847,1.892-1.892,1.892C643.509,627.19,642.662,626.343,642.662,625.298z"/><path fill="#8CC0FF" d="M669.85,627.19h-18.917c-0.91,0-1.648-0.738-1.648-1.648v-6.165c0-0.91,0.738-1.648,1.648-1.648h18.917
	c0.91,0,1.648,0.738,1.648,1.648v6.165C671.498,626.453,670.76,627.19,669.85,627.19z"/><path fill="#8CC0FF" d="M679.711,627.19h-0.128c-0.651,0-1.179-0.528-1.179-1.179v-7.103c0-0.651,0.528-1.179,1.179-1.179h0.128
	c0.651,0,1.179,0.528,1.179,1.179v7.103C680.891,626.662,680.362,627.19,679.711,627.19z"/><path fill="#8CC0FF" d="M687.594,627.19h-0.128c-0.651,0-1.179-0.528-1.179-1.179v-7.103c0-0.651,0.528-1.179,1.179-1.179h0.128
	c0.651,0,1.179,0.528,1.179,1.179v7.103C688.773,626.662,688.245,627.19,687.594,627.19z"/><path fill="#8CC0FF" d="M695.476,627.19h-0.128c-0.651,0-1.179-0.528-1.179-1.179v-7.103c0-0.651,0.528-1.179,1.179-1.179h0.128
	c0.651,0,1.179,0.528,1.179,1.179v7.103C696.656,626.662,696.128,627.19,695.476,627.19z"/><path fill="#8CC0FF" d="M703.359,627.19h-0.128c-0.651,0-1.179-0.528-1.179-1.179v-7.103c0-0.651,0.528-1.179,1.179-1.179h0.128
	c0.651,0,1.179,0.528,1.179,1.179v7.103C704.538,626.663,704.01,627.19,703.359,627.19z"/><path fill="#8CC0FF" d="M711.241,627.19h-0.128c-0.651,0-1.179-0.528-1.179-1.179v-7.103c0-0.651,0.528-1.179,1.179-1.179h0.128
	c0.651,0,1.179,0.528,1.179,1.179v7.103C712.421,626.662,711.893,627.19,711.241,627.19z"/><path fill="#3884E0" d="M928.48,642.397h-32.488c-4.277,0-7.743-3.467-7.743-7.743V468.737c0-4.276,3.467-7.743,7.743-7.743h32.488
	c4.277,0,7.744,3.467,7.744,7.743v165.916C936.223,638.93,932.756,642.397,928.48,642.397z"/><path fill="#4F9EFF" d="M916.839,642.397h-83.74c-4.081,0-7.39-3.309-7.39-7.39V468.384c0-4.081,3.309-7.39,7.39-7.39h83.74
	c4.082,0,7.39,3.309,7.39,7.39v166.623C924.229,639.088,920.921,642.397,916.839,642.397z"/><path fill="#FFF" d="M913.244,491.241h-76.55c-1.336,0-2.418-1.083-2.418-2.418v-13.527c0-1.336,1.083-2.418,2.418-2.418h76.55
	c1.335,0,2.418,1.083,2.418,2.418v13.527C915.662,490.159,914.58,491.241,913.244,491.241z"/><path fill="#8CC0FF" d="M836.741,479.408c0-1.045,0.847-1.892,1.892-1.892c1.045,0,1.892,0.847,1.892,1.892
	c0,1.045-0.847,1.892-1.892,1.892C837.588,481.3,836.741,480.453,836.741,479.408z"/><path fill="#FEC55E" d="M836.741,485.084c0-1.045,0.847-1.892,1.892-1.892c1.045,0,1.892,0.847,1.892,1.892
	c0,1.045-0.847,1.892-1.892,1.892C837.588,486.976,836.741,486.129,836.741,485.084z"/><path fill="#8CC0FF" d="M863.929,486.976h-18.917c-0.91,0-1.648-0.738-1.648-1.648v-6.166c0-0.91,0.738-1.648,1.648-1.648h18.917
	c0.91,0,1.648,0.738,1.648,1.648v6.166C865.576,486.239,864.839,486.976,863.929,486.976z"/><path fill="#8CC0FF" d="M873.79,486.976h-0.128c-0.651,0-1.179-0.528-1.179-1.179v-7.103c0-0.651,0.528-1.179,1.179-1.179h0.128
	c0.651,0,1.179,0.528,1.179,1.179v7.103C874.969,486.448,874.441,486.976,873.79,486.976z"/><path fill="#8CC0FF" d="M881.673,486.976h-0.128c-0.651,0-1.179-0.528-1.179-1.179v-7.102c0-0.651,0.528-1.179,1.179-1.179h0.128
	c0.651,0,1.179,0.528,1.179,1.179v7.102C882.852,486.448,882.324,486.976,881.673,486.976z"/><path fill="#8CC0FF" d="M889.555,486.976h-0.128c-0.651,0-1.179-0.528-1.179-1.179v-7.102c0-0.651,0.528-1.179,1.179-1.179h0.128
	c0.651,0,1.179,0.528,1.179,1.179v7.103C890.734,486.448,890.206,486.976,889.555,486.976z"/><path fill="#8CC0FF" d="M897.438,486.976h-0.128c-0.651,0-1.179-0.528-1.179-1.179v-7.103c0-0.651,0.528-1.179,1.179-1.179h0.128
	c0.651,0,1.179,0.528,1.179,1.179v7.102C898.617,486.448,898.089,486.976,897.438,486.976z"/><path fill="#8CC0FF" d="M905.32,486.976h-0.128c-0.651,0-1.179-0.528-1.179-1.179v-7.102c0-0.651,0.528-1.179,1.179-1.179h0.128
	c0.651,0,1.179,0.528,1.179,1.179v7.102C906.5,486.448,905.972,486.976,905.32,486.976z"/><path fill="#FFF" d="M913.244,519.284h-76.55c-1.336,0-2.418-1.083-2.418-2.418v-13.527c0-1.335,1.083-2.418,2.418-2.418h76.55
	c1.335,0,2.418,1.083,2.418,2.418v13.527C915.662,518.201,914.58,519.284,913.244,519.284z"/><path fill="#8CC0FF" d="M836.741,507.45c0-1.045,0.847-1.892,1.892-1.892c1.045,0,1.892,0.847,1.892,1.892
	c0,1.045-0.847,1.892-1.892,1.892C837.588,509.342,836.741,508.495,836.741,507.45z"/><path fill="#FEC55E" d="M836.741,513.127c0-1.045,0.847-1.892,1.892-1.892c1.045,0,1.892,0.847,1.892,1.892
	s-0.847,1.892-1.892,1.892C837.588,515.019,836.741,514.172,836.741,513.127z"/><path fill="#8CC0FF" d="M863.929,515.019h-18.917c-0.91,0-1.648-0.738-1.648-1.648v-6.165c0-0.91,0.738-1.648,1.648-1.648h18.917
	c0.91,0,1.648,0.738,1.648,1.648v6.165C865.576,514.281,864.839,515.019,863.929,515.019z"/><path fill="#8CC0FF" d="M873.79,515.019h-0.128c-0.651,0-1.179-0.528-1.179-1.179v-7.103c0-0.651,0.528-1.179,1.179-1.179h0.128
	c0.651,0,1.179,0.528,1.179,1.179v7.103C874.969,514.491,874.441,515.019,873.79,515.019z"/><path fill="#8CC0FF" d="M881.673,515.019h-0.128c-0.651,0-1.179-0.528-1.179-1.179v-7.102c0-0.651,0.528-1.179,1.179-1.179h0.128
	c0.651,0,1.179,0.528,1.179,1.179v7.103C882.852,514.491,882.324,515.019,881.673,515.019z"/><path fill="#8CC0FF" d="M889.555,515.019h-0.128c-0.651,0-1.179-0.528-1.179-1.179v-7.102c0-0.651,0.528-1.179,1.179-1.179h0.128
	c0.651,0,1.179,0.528,1.179,1.179v7.103C890.734,514.491,890.207,515.019,889.555,515.019z"/><path fill="#8CC0FF" d="M897.438,515.019h-0.128c-0.651,0-1.179-0.528-1.179-1.179v-7.103c0-0.651,0.528-1.179,1.179-1.179h0.128
	c0.651,0,1.179,0.528,1.179,1.179v7.103C898.617,514.491,898.089,515.019,897.438,515.019z"/><path fill="#8CC0FF" d="M905.32,515.019h-0.128c-0.651,0-1.179-0.528-1.179-1.179v-7.102c0-0.651,0.528-1.179,1.179-1.179h0.128
	c0.651,0,1.179,0.528,1.179,1.179v7.103C906.5,514.491,905.972,515.019,905.32,515.019z"/><path fill="#FFF" d="M913.244,547.327h-76.55c-1.336,0-2.418-1.083-2.418-2.418v-13.527c0-1.335,1.083-2.418,2.418-2.418h76.55
	c1.335,0,2.418,1.083,2.418,2.418v13.527C915.662,546.244,914.58,547.327,913.244,547.327z"/><path fill="#8CC0FF" d="M836.741,535.493c0-1.045,0.847-1.892,1.892-1.892c1.045,0,1.892,0.847,1.892,1.892
	c0,1.045-0.847,1.892-1.892,1.892C837.588,537.385,836.741,536.538,836.741,535.493z"/><path fill="#FEC55E" d="M836.741,541.17c0-1.045,0.847-1.892,1.892-1.892c1.045,0,1.892,0.847,1.892,1.892s-0.847,1.892-1.892,1.892
	C837.588,543.062,836.741,542.215,836.741,541.17z"/><path fill="#8CC0FF" d="M863.929,543.062h-18.917c-0.91,0-1.648-0.738-1.648-1.648v-6.165c0-0.91,0.738-1.648,1.648-1.648h18.917
	c0.91,0,1.648,0.738,1.648,1.648v6.165C865.576,542.324,864.839,543.062,863.929,543.062z"/><path fill="#8CC0FF" d="M873.79,543.062h-0.128c-0.651,0-1.179-0.528-1.179-1.179v-7.103c0-0.651,0.528-1.179,1.179-1.179h0.128
	c0.651,0,1.179,0.528,1.179,1.179v7.103C874.969,542.534,874.441,543.062,873.79,543.062z"/><path fill="#8CC0FF" d="M881.673,543.062h-0.128c-0.651,0-1.179-0.528-1.179-1.179v-7.103c0-0.651,0.528-1.179,1.179-1.179h0.128
	c0.651,0,1.179,0.528,1.179,1.179v7.103C882.852,542.534,882.324,543.062,881.673,543.062z"/><path fill="#8CC0FF" d="M889.555,543.062h-0.128c-0.651,0-1.179-0.528-1.179-1.179v-7.102c0-0.651,0.528-1.179,1.179-1.179h0.128
	c0.651,0,1.179,0.528,1.179,1.179v7.103C890.734,542.534,890.207,543.062,889.555,543.062z"/><path fill="#8CC0FF" d="M897.438,543.062h-0.128c-0.651,0-1.179-0.528-1.179-1.179v-7.103c0-0.651,0.528-1.179,1.179-1.179h0.128
	c0.651,0,1.179,0.528,1.179,1.179v7.103C898.617,542.534,898.089,543.062,897.438,543.062z"/><path fill="#8CC0FF" d="M905.32,543.062h-0.128c-0.651,0-1.179-0.528-1.179-1.179v-7.102c0-0.651,0.528-1.179,1.179-1.179h0.128
	c0.651,0,1.179,0.528,1.179,1.179v7.103C906.5,542.534,905.972,543.062,905.32,543.062z"/><path fill="#FFF" d="M913.244,575.37h-76.55c-1.336,0-2.418-1.083-2.418-2.418v-13.527c0-1.335,1.083-2.418,2.418-2.418h76.55
	c1.335,0,2.418,1.083,2.418,2.418v13.527C915.662,574.287,914.58,575.37,913.244,575.37z"/><path fill="#8CC0FF" d="M836.741,563.536c0-1.045,0.847-1.892,1.892-1.892c1.045,0,1.892,0.847,1.892,1.892
	s-0.847,1.892-1.892,1.892C837.588,565.428,836.741,564.581,836.741,563.536z"/><path fill="#FEC55E" d="M836.741,569.213c0-1.045,0.847-1.892,1.892-1.892c1.045,0,1.892,0.847,1.892,1.892
	c0,1.045-0.847,1.892-1.892,1.892C837.588,571.105,836.741,570.258,836.741,569.213z"/><path fill="#8CC0FF" d="M863.929,571.105h-18.917c-0.91,0-1.648-0.738-1.648-1.648v-6.165c0-0.91,0.738-1.648,1.648-1.648h18.917
	c0.91,0,1.648,0.738,1.648,1.648v6.165C865.576,570.367,864.839,571.105,863.929,571.105z"/><path fill="#8CC0FF" d="M873.79,571.105h-0.128c-0.651,0-1.179-0.528-1.179-1.179v-7.103c0-0.651,0.528-1.179,1.179-1.179h0.128
	c0.651,0,1.179,0.528,1.179,1.179v7.103C874.969,570.577,874.441,571.105,873.79,571.105z"/><path fill="#8CC0FF" d="M881.673,571.105h-0.128c-0.651,0-1.179-0.528-1.179-1.179v-7.103c0-0.651,0.528-1.179,1.179-1.179h0.128
	c0.651,0,1.179,0.528,1.179,1.179v7.103C882.852,570.577,882.324,571.105,881.673,571.105z"/><path fill="#8CC0FF" d="M889.555,571.105h-0.128c-0.651,0-1.179-0.528-1.179-1.179v-7.103c0-0.651,0.528-1.179,1.179-1.179h0.128
	c0.651,0,1.179,0.528,1.179,1.179v7.103C890.734,570.577,890.206,571.105,889.555,571.105z"/><path fill="#8CC0FF" d="M897.438,571.105h-0.128c-0.651,0-1.179-0.528-1.179-1.179v-7.103c0-0.651,0.528-1.179,1.179-1.179h0.128
	c0.651,0,1.179,0.528,1.179,1.179v7.103C898.617,570.577,898.089,571.105,897.438,571.105z"/><path fill="#8CC0FF" d="M905.32,571.105h-0.128c-0.651,0-1.179-0.528-1.179-1.179v-7.103c0-0.651,0.528-1.179,1.179-1.179h0.128
	c0.651,0,1.179,0.528,1.179,1.179v7.103C906.5,570.577,905.972,571.105,905.32,571.105z"/><path fill="#FFF" d="M913.244,603.412h-76.55c-1.336,0-2.418-1.083-2.418-2.418v-13.527c0-1.336,1.083-2.418,2.418-2.418h76.55
	c1.335,0,2.418,1.083,2.418,2.418v13.527C915.662,602.33,914.58,603.412,913.244,603.412z"/><path fill="#8CC0FF" d="M836.741,591.579c0-1.045,0.847-1.892,1.892-1.892c1.045,0,1.892,0.847,1.892,1.892
	c0,1.045-0.847,1.892-1.892,1.892C837.588,593.471,836.741,592.624,836.741,591.579z"/><path fill="#FEC55E" d="M836.741,597.255c0-1.045,0.847-1.892,1.892-1.892c1.045,0,1.892,0.847,1.892,1.892
	c0,1.045-0.847,1.892-1.892,1.892C837.588,599.148,836.741,598.3,836.741,597.255z"/><path fill="#8CC0FF" d="M863.929,599.148h-18.917c-0.91,0-1.648-0.738-1.648-1.648v-6.165c0-0.91,0.738-1.648,1.648-1.648h18.917
	c0.91,0,1.648,0.738,1.648,1.648v6.165C865.576,598.41,864.839,599.148,863.929,599.148z"/><path fill="#8CC0FF" d="M873.79,599.148h-0.128c-0.651,0-1.179-0.528-1.179-1.179v-7.103c0-0.651,0.528-1.179,1.179-1.179h0.128
	c0.651,0,1.179,0.528,1.179,1.179v7.103C874.969,598.62,874.441,599.148,873.79,599.148z"/><path fill="#8CC0FF" d="M881.673,599.148h-0.128c-0.651,0-1.179-0.528-1.179-1.179v-7.103c0-0.651,0.528-1.179,1.179-1.179h0.128
	c0.651,0,1.179,0.528,1.179,1.179v7.103C882.852,598.62,882.324,599.148,881.673,599.148z"/><path fill="#8CC0FF" d="M889.555,599.148h-0.128c-0.651,0-1.179-0.528-1.179-1.179v-7.102c0-0.651,0.528-1.179,1.179-1.179h0.128
	c0.651,0,1.179,0.528,1.179,1.179v7.103C890.734,598.62,890.207,599.148,889.555,599.148z"/><path fill="#8CC0FF" d="M897.438,599.148h-0.128c-0.651,0-1.179-0.528-1.179-1.179v-7.103c0-0.651,0.528-1.179,1.179-1.179h0.128
	c0.651,0,1.179,0.528,1.179,1.179v7.103C898.617,598.62,898.089,599.148,897.438,599.148z"/><path fill="#8CC0FF" d="M905.32,599.148h-0.128c-0.651,0-1.179-0.528-1.179-1.179v-7.102c0-0.651,0.528-1.179,1.179-1.179h0.128
	c0.651,0,1.179,0.528,1.179,1.179v7.103C906.5,598.62,905.972,599.148,905.32,599.148z"/><path fill="#FFF" d="M913.244,631.455h-76.55c-1.336,0-2.418-1.083-2.418-2.418V615.51c0-1.335,1.083-2.418,2.418-2.418h76.55
	c1.335,0,2.418,1.083,2.418,2.418v13.527C915.662,630.373,914.58,631.455,913.244,631.455z"/><path fill="#8CC0FF" d="M836.741,619.622c0-1.045,0.847-1.892,1.892-1.892c1.045,0,1.892,0.847,1.892,1.892
	c0,1.045-0.847,1.892-1.892,1.892C837.588,621.514,836.741,620.667,836.741,619.622z"/><path fill="#FEC55E" d="M836.741,625.298c0-1.045,0.847-1.892,1.892-1.892c1.045,0,1.892,0.847,1.892,1.892
	c0,1.045-0.847,1.892-1.892,1.892C837.588,627.19,836.741,626.343,836.741,625.298z"/><path fill="#8CC0FF" d="M863.929,627.19h-18.917c-0.91,0-1.648-0.738-1.648-1.648v-6.165c0-0.91,0.738-1.648,1.648-1.648h18.917
	c0.91,0,1.648,0.738,1.648,1.648v6.165C865.576,626.453,864.839,627.19,863.929,627.19z"/><path fill="#8CC0FF" d="M873.79,627.19h-0.128c-0.651,0-1.179-0.528-1.179-1.179v-7.103c0-0.651,0.528-1.179,1.179-1.179h0.128
	c0.651,0,1.179,0.528,1.179,1.179v7.103C874.969,626.663,874.441,627.19,873.79,627.19z"/><path fill="#8CC0FF" d="M881.673,627.19h-0.128c-0.651,0-1.179-0.528-1.179-1.179v-7.103c0-0.651,0.528-1.179,1.179-1.179h0.128
	c0.651,0,1.179,0.528,1.179,1.179v7.103C882.852,626.662,882.324,627.19,881.673,627.19z"/><path fill="#8CC0FF" d="M889.555,627.19h-0.128c-0.651,0-1.179-0.528-1.179-1.179v-7.103c0-0.651,0.528-1.179,1.179-1.179h0.128
	c0.651,0,1.179,0.528,1.179,1.179v7.103C890.734,626.662,890.206,627.19,889.555,627.19z"/><path fill="#8CC0FF" d="M897.438,627.19h-0.128c-0.651,0-1.179-0.528-1.179-1.179v-7.103c0-0.651,0.528-1.179,1.179-1.179h0.128
	c0.651,0,1.179,0.528,1.179,1.179v7.103C898.617,626.662,898.089,627.19,897.438,627.19z"/><path fill="#8CC0FF" d="M905.32,627.19h-0.128c-0.651,0-1.179-0.528-1.179-1.179v-7.103c0-0.651,0.528-1.179,1.179-1.179h0.128
	c0.651,0,1.179,0.528,1.179,1.179v7.103C906.5,626.662,905.972,627.19,905.32,627.19z"/><path fill="#68A6F2" d="M356.243,784.952l0.071,118.399c0.001,1.796-1.29,3.252-2.888,3.253l-174.278,0.105
	c-1.597,0.001-2.894-1.453-2.895-3.249l-0.071-118.399c-0.001-1.796,1.294-3.252,2.891-3.253l174.278-0.105
	C354.949,781.702,356.242,783.157,356.243,784.952z"/><path fill="#FFF" d="M356.243,784.952l0.071,118.399c0.001,1.796-1.29,3.252-2.888,3.253l-174.278,0.105
	c-1.597,0.001-2.894-1.453-2.895-3.249l-0.071-118.399c-0.001-1.796,1.294-3.252,2.891-3.253l174.278-0.105
	C354.949,781.702,356.242,783.157,356.243,784.952z"/><path fill="#999" d="M263.019,776.428c-0.001-2.077,1.526-3.762,3.411-3.763c1.885-0.001,3.415,1.682,3.416,3.759
	c0.001,2.077-1.526,3.761-3.411,3.763C264.55,780.188,263.02,778.505,263.019,776.428z"/><path fill="#8AB9F2" d="M362.592,927.048l-192.14,0.116c-1.199,0.001-2.172-3.685-2.175-8.233l0,0
	c-0.003-4.547,0.967-8.235,2.165-8.236l192.14-0.115c1.198-0.001,2.172,3.686,2.175,8.234l0,0
	C364.759,923.36,363.79,927.047,362.592,927.048z"/><path fill="#68A6F2" d="M358.481,770.551l-185.125,0.111c-1.522,0.001-2.756,1.362-2.755,3.039l0.081,133.953
	c0.001,1.677,1.237,3.036,2.759,3.036l185.125-0.111c1.522-0.001,2.756-1.362,2.755-3.039l-0.081-133.953
	C361.238,771.91,360.003,770.551,358.481,770.551z M356.314,903.351c0.001,1.796-1.29,3.252-2.888,3.253l-174.278,0.105
	c-1.597,0.001-2.894-1.453-2.895-3.249l-0.071-118.399c-0.001-1.796,1.294-3.252,2.891-3.253l174.278-0.105
	c1.598-0.001,2.891,1.454,2.892,3.249L356.314,903.351z"/><path fill="#226BC7" d="M269.873,821.163L269.873,821.163c-0.001-1.961-1.465-3.55-3.268-3.549l-23.03,0.014
	c-1.804,0.001-3.265,1.591-3.264,3.552l0.005,7.582l0.026,43.426c0.001,1.961,1.464,3.549,3.268,3.549l52.593-0.032
	c1.804-0.001,3.265-1.592,3.264-3.552l-0.026-43.907c-0.001-1.961-1.464-3.549-3.268-3.548l-23.03,0.014
	C271.337,824.712,269.874,823.124,269.873,821.163z"/><rect width="51.863" height="13.848" x="242.477" y="827.064" fill="#FFF"/><rect width="51.863" height="13.848" x="244.318" y="825.797" fill="#FFF"/><rect width="51.863" height="13.848" x="246.077" y="826.756" fill="#FFF"/><path fill="#3F8CEB" d="M295.123,875.706l-50.434,0.03c-2.4,0.002-4.54-1.844-4.783-4.155l-3.994-37.955
	c-0.317-3.016,1.695-5.503,4.499-5.505l58.934-0.035c2.805-0.002,4.82,2.483,4.506,5.499l-3.949,37.96
	C299.661,873.857,297.523,875.704,295.123,875.706z"/><path fill="#2475D6" d="M299.344,828.086l-0.37,0c0.251,0.725,0.355,1.535,0.266,2.39l-3.949,37.959
	c-0.241,2.312-2.378,4.16-4.778,4.161l-50.354,0.03c0.673,1.797,2.507,3.11,4.53,3.109l50.434-0.03
	c2.4-0.001,4.538-1.849,4.779-4.161l3.949-37.96C304.164,830.57,302.149,828.084,299.344,828.086z"/><path fill="#8CC0FF" d="M246.269,868.06c-1.208-8.757-2.416-17.513-3.624-26.27c-0.094-0.68-0.87-1.054-1.42-0.887
	c-0.659,0.2-0.899,0.883-0.805,1.565c1.208,8.757,2.416,17.513,3.624,26.27c0.094,0.68,0.87,1.054,1.42,0.887
	C246.123,869.425,246.363,868.742,246.269,868.06z"/><path fill="#8CC0FF" d="M241.724,833.306c-0.012-0.334-0.121-0.659-0.338-0.899c-0.2-0.22-0.529-0.386-0.816-0.372
	c-0.604,0.03-1.18,0.56-1.153,1.272l0.129,3.449c0.013,0.334,0.121,0.659,0.339,0.899c0.2,0.221,0.529,0.386,0.816,0.372
	c0.604-0.03,1.18-0.56,1.154-1.272L241.724,833.306z"/><path fill="#68A6F2" d="M779.022,753.617H594.617c-1.516,0-2.747,1.23-2.747,2.747V877.47c0,1.517,1.23,2.747,2.747,2.747h184.406
	c1.516,0,2.747-1.23,2.747-2.747V756.364C781.769,754.847,780.539,753.617,779.022,753.617z M776.984,864.034
	c0,1.576-1.304,2.858-2.913,2.858H598.458c-1.609,0-2.913-1.281-2.913-2.858V760.055c0-1.579,1.304-2.858,2.913-2.858h175.613
	c1.609,0,2.913,1.279,2.913,2.858V864.034z"/><path fill="#FFF" d="M682.933,873.554c0-2.453,1.989-4.442,4.442-4.442c2.454,0,4.442,1.989,4.442,4.442
	c0,2.453-1.989,4.442-4.442,4.442C684.922,877.996,682.933,876.007,682.933,873.554z"/><path fill="#CCC" d="M689.904,869.908c0.5,0.718,0.797,1.588,0.797,2.529c0,2.453-1.989,4.442-4.442,4.442
	c-0.942,0-1.811-0.297-2.53-0.797c0.802,1.154,2.134,1.913,3.646,1.913c2.454,0,4.442-1.989,4.442-4.442
	C691.817,872.042,691.058,870.711,689.904,869.908z"/><path fill="#4F92E3" d="M743.621,917.975h-23.666c-9.106-0.699-20.211-1.11-32.183-1.11c-11.971,0-23.076,0.411-32.183,1.11h-23.665
	c-0.155,0.178-0.233,0.366-0.233,0.555v4.442c0,0.188,0.078,0.377,0.233,0.555c2.587,3.12,26.608,5.552,55.848,5.552
	c29.24,0,53.261-2.432,55.848-5.552c0.155-0.178,0.233-0.367,0.233-0.555v-4.442C743.854,918.341,743.776,918.153,743.621,917.975z"/><path fill="#68A6F2" d="M743.854,918.53c0,0.788-1.355,1.532-3.82,2.221c0,0,0,0-0.011,0c-4.053,1.133-11.094,2.099-20.067,2.776
	c-9.106,0.7-20.211,1.111-32.183,1.111c-11.971,0-23.076-0.411-32.183-1.111c-8.973-0.677-16.014-1.644-20.068-2.776
	c-0.011,0-0.011,0-0.011,0c-2.466-0.689-3.82-1.433-3.82-2.221c0-0.189,0.078-0.378,0.233-0.555
	c2.587-3.12,26.608-5.552,55.848-5.552c29.24,0,53.261,2.432,55.848,5.552C743.776,918.153,743.854,918.341,743.854,918.53z"/><polygon fill="#68A6F2" points="707.364 916.864 666.275 916.864 672.316 883.671 672.316 883.659 672.938 880.217 701.812 880.217"/><path fill="#4F92E3" d="M707.364,916.864h-4.887c0,0-2.328-20.052-8-26.609c-7.474-8.618-22.161-6.584-22.161-6.584v-0.011
	l0.622-3.443h28.874L707.364,916.864z"/><path fill="#68A6F2" d="M1125.517,763.76h-74.169c-5.037,0-9.117,4.288-9.117,9.579v146.162c0,2.886,1.219,5.479,3.146,7.237
	c0.064,0.057,0.129,0.115,0.194,0.173c1.573,1.359,3.588,2.169,5.778,2.169h74.169c2.189,0,4.205-0.81,5.778-2.169
	c2.041-1.757,3.344-4.424,3.344-7.409V773.339C1134.639,768.048,1130.553,763.76,1125.517,763.76z M1128.672,910.363
	c0,5.34-4.119,9.668-9.201,9.668h-62.071c-5.082,0-9.201-4.328-9.201-9.668V782.578c0-3.321,2.563-6.012,5.723-6.012h69.028
	c3.161,0,5.722,2.692,5.722,6.012V910.363z"/><path fill="#FFF" d="M1056.931,770.559c0,1.583-1.314,2.869-2.934,2.869c-1.619,0-2.933-1.286-2.933-2.869
	c0-1.584,1.314-2.87,2.933-2.87C1055.617,767.689,1056.931,768.975,1056.931,770.559z"/><path fill="#68A6F2" d="M1055.982,770.559c0,1.071-0.889,1.941-1.985,1.941c-1.095,0-1.985-0.87-1.985-1.941
	c0-1.072,0.89-1.941,1.985-1.941C1055.093,768.617,1055.982,769.487,1055.982,770.559z"/><path fill="#FFF" d="M1062.936,770.559c0,1.071-0.889,1.941-1.985,1.941c-1.096,0-1.985-0.87-1.985-1.941
	c0-1.072,0.889-1.941,1.985-1.941C1062.047,768.617,1062.936,769.487,1062.936,770.559z"/><path fill="#3F8CEB" d="M1111.08,821.128l-45.226-0.054c-4.608-0.006-8.348,3.726-8.354,8.334l-0.045,37.039
	c-0.005,4.608,3.726,8.348,8.334,8.354l45.226,0.054c4.608,0.006,8.348-3.725,8.354-8.334l0.045-37.039
	C1119.419,824.873,1115.688,821.133,1111.08,821.128z"/><path fill="#2475D6" d="M1115.692,822.525c0.564,1.125,0.882,2.395,0.88,3.739l-0.044,37.039c-0.006,4.608-3.745,8.339-8.354,8.333
	l-45.226-0.054c-1.706-0.002-3.292-0.517-4.612-1.398c1.368,2.732,4.19,4.61,7.453,4.614l45.226,0.054
	c4.608,0.006,8.348-3.725,8.354-8.334l0.045-37.039C1119.417,826.58,1117.938,824.023,1115.692,822.525z"/><path fill="#FFF" d="M1084.269,856.839c-1.291,0.624-2.793-0.308-2.806-1.742l-0.063-7.122l-0.063-7.122
	c-0.013-1.434,1.473-2.393,2.774-1.791l8.037,3.714l7.086,3.275c1.498,0.692,1.517,2.815,0.031,3.534l-7.028,3.399L1084.269,856.839
	z"/><path fill="#FFF" d="M1088.335,865.025c-9.689-0.012-17.563-7.904-17.552-17.594c0.012-9.69,7.904-17.563,17.594-17.552
	s17.563,7.904,17.552,17.594C1105.917,857.163,1098.025,865.037,1088.335,865.025z M1088.376,831.129
	c-9-0.011-16.332,7.303-16.342,16.303c-0.011,9,7.303,16.332,16.303,16.343c9,0.011,16.332-7.303,16.342-16.304
	C1104.69,838.471,1097.376,831.14,1088.376,831.129z"/><path fill="#8CC0FF" d="M1088.109,823.919c-3.374-0.119-6.749-0.238-10.124-0.338c-3.252-0.096-6.537-0.283-9.782,0.017
	c-2.522,0.234-5.335,0.657-6.837,2.935c-1.533,2.325-1.102,5.17-1.046,7.797c0.032,1.505,2.362,1.359,2.33-0.139
	c-0.048-2.252-0.734-5.594,1.404-7.17c1.899-1.4,5.225-1.218,7.452-1.24c5.576-0.054,11.171,0.271,16.743,0.467
	C1089.751,826.302,1089.598,823.971,1088.109,823.919z"/><path fill="#8CC0FF" d="M1092.038,824.278c-1.421,0.485-0.67,2.695,0.754,2.209C1094.213,826.002,1093.462,823.793,1092.038,824.278
	z"/><path fill="#8CC0FF" d="M1060.928,838.45c-1.422,0.485-0.67,2.695,0.754,2.209C1063.103,840.174,1062.351,837.964,1060.928,838.45z"/><path fill="#FFF" d="M728.022,844.327l-81.256,0.049c-4.68,0.003-8.475-3.788-8.478-8.468l-0.027-45.618
	c-0.003-4.679,3.788-8.475,8.468-8.478l81.256-0.049c4.68-0.003,8.475,3.788,8.478,8.468l0.028,45.618
	C736.492,840.528,732.701,844.324,728.022,844.327z"/><path fill="#F0E2E5" d="M731.079,843.595l-87.244,0.053c-2.718,0.001-4.931-2.235-4.933-4.987l-0.031-51.126
	c-0.002-2.751,2.208-4.991,4.927-4.992l87.244-0.053c2.718-0.002,4.931,2.236,4.933,4.987l0.031,51.126
	C736.007,841.354,733.797,843.594,731.079,843.595z M643.799,784.816c-1.48,0.001-2.683,1.22-2.682,2.718l0.031,51.126
	c0.001,1.498,1.205,2.716,2.685,2.715l87.243-0.052c1.48-0.001,2.683-1.22,2.682-2.718l-0.031-51.125
	c-0.001-1.498-1.205-2.716-2.685-2.715L643.799,784.816z"/><path fill="#4F9EFF" d="M732.555,845.533l-90.32,0.055c-2.814,0.002-5.105-2.377-5.107-5.303l-0.033-54.37
	c-0.002-2.926,2.286-5.307,5.101-5.309l90.32-0.054c2.814-0.002,5.105,2.377,5.107,5.303l0.033,54.37
	C737.657,843.149,735.369,845.531,732.555,845.533z M642.197,783.023c-1.532,0.001-2.777,1.297-2.776,2.89l0.033,54.37
	c0.001,1.593,1.248,2.888,2.78,2.887l90.32-0.054c1.532-0.001,2.778-1.297,2.777-2.89l-0.033-54.37
	c-0.001-1.593-1.248-2.888-2.78-2.887L642.197,783.023z"/><path fill="#4F9EFF" d="M651.315,832.222l17.094-24.468c0.913-1.306,2.8-1.259,3.651,0.092l14.588,23.165
	c0.911,1.446,2.971,1.375,3.788-0.13l3.279-6.041c0.848-1.563,3.013-1.564,3.863-0.002l2.791,5.127
	c0.919,1.689,3.311,1.515,3.995-0.291l7.65-20.198c0.757-1.999,3.5-1.931,4.165,0.103l7.588,23.215
	c0.489,1.495-0.58,3.048-2.099,3.048l-68.557,0.041C651.298,835.885,650.249,833.747,651.315,832.222z"/><path fill="#4F9EFF" d="M684.682,799.619c-0.002-3.714,2.892-6.727,6.465-6.729c3.573-0.002,6.471,3.007,6.473,6.721
	c0.002,3.714-2.892,6.727-6.465,6.729C687.582,806.343,684.684,803.333,684.682,799.619z"/><path fill="#4F9EFF" d="M670.974,796.742c-0.12,0-0.238,0.012-0.351,0.036c0.009-0.091,0.014-0.183,0.014-0.277
	c-0.001-1.48-1.156-2.679-2.579-2.678c-1.214,0.001-2.232,0.875-2.504,2.051c-0.272-0.263-0.637-0.423-1.037-0.423
	c-0.56,0-1.048,0.314-1.314,0.781c-0.256-0.115-0.538-0.178-0.834-0.178c-1.165,0.001-2.109,0.983-2.108,2.194
	c0.001,1.211,0.946,2.192,2.111,2.192c0.494,0,0.949-0.177,1.308-0.474c0.693,0.601,1.844,0.994,3.147,0.993
	c1.221-0.001,2.309-0.347,3.01-0.885c0.311,0.264,0.708,0.422,1.141,0.421c0.997,0,1.805-0.841,1.804-1.878
	C672.78,797.581,671.971,796.741,670.974,796.742z"/><path fill="#4F9EFF" d="M715.9,796.715c-0.12,0-0.238,0.012-0.352,0.036c0.009-0.091,0.013-0.183,0.013-0.277
	c-0.001-1.48-1.156-2.679-2.579-2.678c-1.215,0.001-2.232,0.875-2.504,2.051c-0.272-0.262-0.637-0.423-1.038-0.423
	c-0.559,0-1.049,0.314-1.314,0.781c-0.256-0.115-0.538-0.178-0.834-0.178c-1.165,0.001-2.109,0.983-2.108,2.194
	c0.001,1.211,0.946,2.192,2.111,2.192c0.494,0,0.949-0.177,1.308-0.474c0.693,0.601,1.844,0.994,3.147,0.993
	c1.221-0.001,2.308-0.347,3.01-0.885c0.311,0.264,0.708,0.422,1.141,0.421c0.997-0.001,1.805-0.841,1.804-1.878
	C717.706,797.554,716.897,796.714,715.9,796.715z"/><path fill="#8CC0FF" d="M667.755,812.33c-4.383,6.232-8.583,12.592-12.593,19.07c-0.498,0.805,0.713,1.644,1.213,0.837
	c4.01-6.479,8.209-12.839,12.593-19.07C669.515,812.389,668.301,811.554,667.755,812.33z"/><path fill="#8CC0FF" d="M669.824,810.289c-0.945-0.071-1.057,1.398-0.111,1.469C670.659,811.829,670.771,810.36,669.824,810.289z"/><path fill="#8CC0FF" d="M667.304,794.78c-0.945-0.071-1.057,1.398-0.11,1.469C668.139,796.32,668.251,794.851,667.304,794.78z"/><path fill="#8CC0FF" d="M690.622,794.813c-1.816,0.429-3.37,1.871-3.803,3.709c-0.454,1.929,0.277,3.939,1.81,5.177
	c0.31,0.25,0.811,0.122,1.025-0.188c0.241-0.349,0.122-0.774-0.188-1.025c-1.023-0.826-1.545-2.289-1.234-3.574
	c0.313-1.294,1.382-2.348,2.674-2.654C691.825,796.041,691.548,794.594,690.622,794.813z"/></svg>